<svg width="64" height="65" viewBox="0 0 64 65" fill="none" xmlns="http://www.w3.org/2000/svg">
<path opacity="0.5" d="M22.668 41.5234C20.0013 41.5234 14.668 44.1901 14.668 50.8568" stroke="white" stroke-width="1.5" stroke-linecap="round"/>
<path opacity="0.5" d="M41.332 41.5234C43.9987 41.5234 49.332 44.1901 49.332 50.8568" stroke="white" stroke-width="1.5" stroke-linecap="round"/>
<path opacity="0.5" d="M37.3346 41.5234L32.4862 47.3416M30.668 49.5234L32.4862 47.3416M26.668 41.5234L32.4862 47.3416" stroke="white" stroke-width="1.5" stroke-linecap="round"/>
<path opacity="0.5" d="M22 46.1914V50.1914M20 48.1914H24" stroke="white" stroke-width="1.5" stroke-linecap="round"/>
<path d="M25.1173 35.5777C25.514 35.6968 25.9322 35.4716 26.0512 35.0749C26.1702 34.6781 25.9451 34.26 25.5483 34.141L25.1173 35.5777ZM22.2501 14.2353C21.0779 15.0168 20.0045 16.5508 19.2089 18.357C18.4032 20.1863 17.8373 22.3953 17.75 24.6301C17.6628 26.8637 18.0526 29.1656 19.2062 31.138C20.3693 33.1266 22.2781 34.726 25.1173 35.5777L25.5483 34.141C23.0542 33.3928 21.463 32.0255 20.501 30.3807C19.5297 28.7198 19.1695 26.7218 19.2489 24.6887C19.3283 22.6568 19.8458 20.6324 20.5817 18.9617C21.3277 17.2679 22.2544 16.0353 23.0822 15.4834L22.2501 14.2353Z" fill="#E9B566"/>
<path d="M38.8827 35.5777C38.486 35.6968 38.0679 35.4716 37.9488 35.0749C37.8298 34.6781 38.0549 34.26 38.4517 34.141L38.8827 35.5777ZM41.7499 14.2353C42.9221 15.0168 43.9955 16.5508 44.7911 18.357C45.5968 20.1863 46.1627 22.3953 46.25 24.6301C46.3372 26.8637 45.9474 29.1656 44.7938 31.138C43.6307 33.1266 41.7219 34.726 38.8827 35.5777L38.4517 34.141C40.9458 33.3928 42.537 32.0255 43.499 30.3807C44.4704 28.7198 44.8305 26.7218 44.7511 24.6887C44.6717 22.6568 44.1542 20.6324 43.4183 18.9617C42.6723 17.2679 41.7456 16.0353 40.9178 15.4834L41.7499 14.2353Z" fill="#E9B566"/>
<path d="M24.3313 25.5234C24.1157 26.3684 24 27.2635 24 28.1901C24 33.3448 27.5817 38.8568 32 38.8568C36.4183 38.8568 40 33.3448 40 28.1901C40 27.2635 39.8843 26.3684 39.6687 25.5234" stroke="#E9B566" stroke-width="1.5" stroke-linecap="round"/>
<path d="M34.6673 20.1914C33.4949 21.3638 30.2609 24.5978 23.1523 25.3616" stroke="#E9B566" stroke-width="1.5" stroke-linecap="round"/>
<path d="M33.332 22.8594C34.6654 24.1927 35.9987 25.526 39.9987 25.526" stroke="#E9B566" stroke-width="1.5" stroke-linecap="round"/>
<path opacity="0.5" d="M42.5586 10.2852C42.6176 10.1831 42.5826 10.0524 42.4799 9.99451C39.2824 8.19082 35.6723 7.24221 31.9987 7.24221C28.3251 7.24221 24.715 8.19082 21.5174 9.99451C21.4148 10.0524 21.3798 10.1831 21.4388 10.2852L25.7006 17.6669C25.7595 17.7689 25.89 17.8037 25.993 17.7466C27.8296 16.728 29.8962 16.1927 31.9987 16.1927C34.1011 16.1927 36.1678 16.728 38.0044 17.7466C38.1074 17.8037 38.2379 17.7689 38.2968 17.6669L42.5586 10.2852Z" stroke="white" stroke-width="1.5"/>
</svg>
