<svg width="40" height="40" viewBox="0 0 40 40" fill="none" xmlns="http://www.w3.org/2000/svg">
<g clip-path="url(#clip0_3034_1617)">
<path d="M27.9097 35.8189C27.8974 35.793 27.88 35.7699 27.8585 35.7508C27.8371 35.7317 27.812 35.7171 27.7847 35.7078C27.7575 35.6985 27.7287 35.6948 27.7 35.6968C27.6713 35.6988 27.6433 35.7065 27.6176 35.7195C27.5658 35.7471 27.5271 35.7939 27.5099 35.8498C27.4926 35.9056 27.4982 35.9659 27.5254 36.0177C27.5375 36.0437 27.555 36.0669 27.5766 36.0858C27.5982 36.1047 27.6236 36.119 27.6511 36.1276C27.6786 36.1362 27.7075 36.1391 27.7362 36.136C27.7648 36.1328 27.7925 36.1238 27.8174 36.1095C27.8428 36.0966 27.8653 36.0788 27.8837 36.0571C27.9021 36.0355 27.916 36.0104 27.9246 35.9834C27.9332 35.9563 27.9363 35.9279 27.9337 35.8996C27.9311 35.8714 27.923 35.844 27.9097 35.8189Z" stroke="#E9B566" stroke-width="0.69" stroke-linecap="round" stroke-linejoin="round"/>
<path d="M30.1988 34.4043C30.165 34.3589 30.1146 34.3285 30.0584 34.3199C30.0023 34.3113 29.945 34.3252 29.8991 34.3584C29.8758 34.3745 29.856 34.395 29.8407 34.4186C29.8254 34.4423 29.815 34.4688 29.81 34.4965C29.805 34.5242 29.8056 34.5526 29.8116 34.58C29.8177 34.6075 29.8291 34.6336 29.8453 34.6567C29.8793 34.7035 29.9299 34.7359 29.9869 34.7472C30.0439 34.7586 30.1031 34.7481 30.1527 34.7178C30.1766 34.7004 30.1969 34.6785 30.2122 34.6532C30.2276 34.628 30.2377 34.5999 30.242 34.5707C30.2463 34.5415 30.2447 34.5118 30.2372 34.4832C30.2298 34.4546 30.2168 34.4278 30.1988 34.4043Z" stroke="#E9B566" stroke-width="0.69" stroke-linecap="round" stroke-linejoin="round"/>
<path d="M32.2213 32.6381C32.191 32.6086 32.1527 32.5886 32.111 32.5807C32.0694 32.5728 32.0264 32.5773 31.9873 32.5936C31.9482 32.6099 31.9149 32.6374 31.8914 32.6725C31.868 32.7076 31.8555 32.7488 31.8555 32.791C31.8555 32.8332 31.868 32.8744 31.8914 32.9095C31.9149 32.9446 31.9482 32.9721 31.9873 32.9884C32.0264 33.0047 32.0694 33.0092 32.111 33.0013C32.1527 32.9934 32.191 32.9734 32.2213 32.9439C32.2417 32.924 32.258 32.9002 32.2691 32.8739C32.2802 32.8477 32.2859 32.8195 32.2859 32.791C32.2859 32.7625 32.2802 32.7343 32.2691 32.7081C32.258 32.6818 32.2417 32.658 32.2213 32.6381Z" stroke="#E9B566" stroke-width="0.69" stroke-linecap="round" stroke-linejoin="round"/>
<path d="M33.9581 30.5889C33.9349 30.5728 33.9088 30.5614 33.8811 30.5554C33.8535 30.5494 33.825 30.5489 33.7971 30.5538C33.7693 30.5588 33.7427 30.5692 33.7189 30.5844C33.6951 30.5996 33.6745 30.6193 33.6584 30.6424C33.625 30.6881 33.6111 30.7451 33.6197 30.801C33.6283 30.8568 33.6588 30.907 33.7045 30.9406C33.7275 30.9583 33.7538 30.9712 33.7819 30.9784C33.8101 30.9857 33.8393 30.9873 33.8681 30.983C33.8968 30.9787 33.9244 30.9687 33.9491 30.9535C33.9738 30.9383 33.9952 30.9183 34.0119 30.8947C34.045 30.8469 34.0579 30.7881 34.0478 30.7309C34.0378 30.6737 34.0056 30.6227 33.9581 30.5889Z" stroke="#E9B566" stroke-width="0.69" stroke-linecap="round" stroke-linejoin="round"/>
<path d="M35.3403 28.2873C35.2882 28.2602 35.2276 28.2547 35.1714 28.2719C35.1153 28.2891 35.0683 28.3276 35.0405 28.3791C35.0272 28.4042 35.0191 28.4316 35.0165 28.4598C35.0139 28.4881 35.017 28.5165 35.0256 28.5435C35.0342 28.5706 35.0481 28.5956 35.0665 28.6173C35.0849 28.6389 35.1074 28.6567 35.1328 28.6696C35.1848 28.6967 35.2455 28.7023 35.3016 28.6851C35.3577 28.6679 35.4048 28.6294 35.4325 28.5779C35.4458 28.5528 35.454 28.5254 35.4565 28.4971C35.4591 28.4689 35.456 28.4405 35.4474 28.4134C35.4388 28.3864 35.425 28.3613 35.4066 28.3397C35.3882 28.318 35.3656 28.3002 35.3403 28.2873Z" stroke="#E9B566" stroke-width="0.69" stroke-linecap="round" stroke-linejoin="round"/>
<path d="M36.3397 25.8023C36.313 25.7929 36.2846 25.789 36.2564 25.7909C36.2281 25.7927 36.2005 25.8004 36.1753 25.8133C36.1501 25.8262 36.1278 25.844 36.1098 25.8658C36.0918 25.8876 36.0785 25.9129 36.0707 25.94C36.0535 25.9947 36.0583 26.054 36.0841 26.1054C36.1099 26.1567 36.1547 26.1961 36.2091 26.2152C36.2363 26.2248 36.2652 26.2287 36.294 26.2269C36.3228 26.2251 36.3509 26.2176 36.3767 26.2048C36.4025 26.1919 36.4255 26.174 36.4442 26.1522C36.463 26.1304 36.4771 26.105 36.4857 26.0776C36.5026 26.0218 36.4967 25.9617 36.4694 25.9102C36.4421 25.8587 36.3955 25.8199 36.3397 25.8023Z" stroke="#E9B566" stroke-width="0.69" stroke-linecap="round" stroke-linejoin="round"/>
<path d="M36.9547 23.1873C36.896 23.1802 36.8368 23.195 36.7885 23.2289C36.7402 23.2629 36.7063 23.3134 36.6934 23.3708C36.6879 23.3985 36.6882 23.427 36.6942 23.4546C36.7002 23.4822 36.7119 23.5083 36.7285 23.5312C36.745 23.5542 36.7662 23.5735 36.7905 23.588C36.8149 23.6025 36.842 23.6118 36.8702 23.6155C36.9271 23.6245 36.9853 23.6112 37.0326 23.5784C37.0799 23.5456 37.1126 23.4959 37.1238 23.4396C37.1294 23.412 37.1294 23.3835 37.124 23.3559C37.1185 23.3283 37.1076 23.302 37.0919 23.2785C37.0762 23.2551 37.056 23.235 37.0324 23.2193C37.0089 23.2036 36.9825 23.1928 36.9547 23.1873Z" stroke="#E9B566" stroke-width="0.69" stroke-linecap="round" stroke-linejoin="round"/>
<path d="M37.1078 20.5111C37.0506 20.5149 36.9969 20.5397 36.9571 20.5807C36.9174 20.6217 36.8944 20.6759 36.8926 20.7329C36.8945 20.789 36.9178 20.8424 36.9577 20.8821C36.9977 20.9219 37.0513 20.945 37.1078 20.9469C37.1367 20.948 37.1655 20.9432 37.1925 20.9329C37.2195 20.9226 37.2441 20.907 37.2649 20.887C37.2857 20.867 37.3023 20.8431 37.3136 20.8166C37.3249 20.7901 37.3307 20.7616 37.3307 20.7329C37.3307 20.674 37.3072 20.6176 37.2654 20.576C37.2236 20.5345 37.1669 20.5111 37.1078 20.5111Z" stroke="#E9B566" stroke-width="0.69" stroke-linecap="round" stroke-linejoin="round"/>
<path d="M36.8706 17.8426C36.8428 17.8481 36.8164 17.859 36.7929 17.8746C36.7693 17.8903 36.7491 17.9104 36.7334 17.9338C36.7177 17.9573 36.7068 17.9836 36.7013 18.0112C36.6959 18.0389 36.6959 18.0673 36.7015 18.0949C36.7127 18.1512 36.7454 18.2009 36.7927 18.2337C36.84 18.2665 36.8982 18.2798 36.9551 18.2708C36.9838 18.2683 37.0115 18.2597 37.0365 18.2455C37.0615 18.2313 37.0831 18.212 37.0999 18.1888C37.1167 18.1655 37.1282 18.139 37.1338 18.1109C37.1393 18.0828 37.1386 18.0539 37.1319 18.0261C37.1207 17.9678 37.0872 17.9162 37.0384 17.8819C36.9897 17.8477 36.9296 17.8336 36.8706 17.8426Z" stroke="#E9B566" stroke-width="0.69" stroke-linecap="round" stroke-linejoin="round"/>
<path d="M36.2241 15.2505C36.1694 15.2697 36.124 15.3087 36.097 15.3597C36.0699 15.4107 36.0632 15.47 36.0781 15.5257C36.086 15.5529 36.0993 15.5783 36.1171 15.6004C36.135 15.6224 36.157 15.6407 36.1821 15.6543C36.2071 15.6678 36.2345 15.6762 36.2629 15.6791C36.2912 15.682 36.3198 15.6792 36.3471 15.671C36.4029 15.6534 36.4494 15.6147 36.4768 15.5632C36.5041 15.5116 36.5099 15.4515 36.4931 15.3958C36.4861 15.368 36.4734 15.3419 36.4558 15.3193C36.4382 15.2966 36.416 15.2779 36.3907 15.2642C36.3654 15.2506 36.3375 15.2423 36.3089 15.2399C36.2802 15.2375 36.2513 15.2411 36.2241 15.2505Z" stroke="#E9B566" stroke-width="0.69" stroke-linecap="round" stroke-linejoin="round"/>
<path d="M35.1572 12.7884C35.1311 12.8005 35.1077 12.8178 35.0887 12.8394C35.0697 12.8609 35.0554 12.8861 35.0467 12.9135C35.0381 12.9408 35.0352 12.9696 35.0383 12.9981C35.0415 13.0266 35.0505 13.0541 35.065 13.079C35.0779 13.1042 35.0958 13.1266 35.1176 13.1449C35.1394 13.1632 35.1645 13.177 35.1917 13.1856C35.2189 13.1941 35.2475 13.1972 35.2759 13.1946C35.3042 13.1921 35.3318 13.184 35.357 13.1707C35.408 13.1444 35.4463 13.0989 35.4636 13.0444C35.4809 12.9899 35.4757 12.9309 35.4492 12.8802C35.4227 12.8295 35.3771 12.7913 35.3223 12.7741C35.2675 12.7569 35.2081 12.762 35.1572 12.7884Z" stroke="#E9B566" stroke-width="0.69" stroke-linecap="round" stroke-linejoin="round"/>
<path d="M33.727 10.5098C33.6825 10.5445 33.6535 10.5953 33.6463 10.6511C33.6391 10.7069 33.6543 10.7633 33.6885 10.808C33.7039 10.832 33.7242 10.8525 33.7479 10.8683C33.7717 10.8841 33.7985 10.8949 33.8266 10.8999C33.8548 10.9049 33.8837 10.9041 33.9115 10.8975C33.9393 10.8909 33.9654 10.8787 33.9883 10.8615C34.0171 10.8469 34.0425 10.8262 34.0625 10.8009C34.0825 10.7756 34.0967 10.7462 34.1042 10.7149C34.1116 10.6835 34.1121 10.6509 34.1056 10.6193C34.0991 10.5878 34.0857 10.558 34.0665 10.5321C34.0472 10.5062 34.0225 10.4847 33.9941 10.4693C33.9657 10.4538 33.9342 10.4447 33.9019 10.4426C33.8696 10.4405 33.8372 10.4454 33.807 10.457C33.7768 10.4686 33.7495 10.4866 33.727 10.5098Z" stroke="#E9B566" stroke-width="0.69" stroke-linecap="round" stroke-linejoin="round"/>
<path d="M31.9443 8.50651C31.9146 8.53663 31.8946 8.57479 31.8866 8.6162C31.8787 8.65761 31.8832 8.70043 31.8996 8.7393C31.916 8.77816 31.9436 8.81133 31.9789 8.83467C32.0142 8.858 32.0557 8.87045 32.098 8.87045C32.1404 8.87045 32.1818 8.858 32.2171 8.83467C32.2524 8.81133 32.28 8.77816 32.2964 8.7393C32.3128 8.70043 32.3173 8.65761 32.3094 8.6162C32.3015 8.57479 32.2814 8.53663 32.2517 8.50651C32.2317 8.48617 32.2078 8.47001 32.1814 8.45898C32.155 8.44795 32.1267 8.44226 32.098 8.44226C32.0694 8.44226 32.041 8.44795 32.0146 8.45898C31.9883 8.47001 31.9643 8.48617 31.9443 8.50651Z" stroke="#E9B566" stroke-width="0.69" stroke-linecap="round" stroke-linejoin="round"/>
<path d="M29.8758 6.7861C29.8586 6.80881 29.8463 6.83482 29.8397 6.86249C29.833 6.89016 29.8322 6.91889 29.8372 6.94689C29.8423 6.97489 29.8531 7.00156 29.869 7.0252C29.8849 7.04885 29.9055 7.06897 29.9296 7.08431C29.9779 7.11454 30.0355 7.12654 30.0919 7.11812C30.1483 7.1097 30.1998 7.08142 30.2371 7.03842C30.2556 7.01553 30.269 6.98896 30.2764 6.9605C30.2837 6.93203 30.2849 6.90233 30.2798 6.87338C30.2747 6.84442 30.2635 6.81688 30.2468 6.79259C30.2302 6.76831 30.2085 6.74785 30.1832 6.73258C30.1346 6.70154 30.076 6.68981 30.0191 6.69972C29.9621 6.70964 29.911 6.74046 29.8758 6.7861Z" stroke="#E9B566" stroke-width="0.69" stroke-linecap="round" stroke-linejoin="round"/>
<path d="M27.5625 5.41744C27.5353 5.46921 27.5297 5.52957 27.547 5.58541C27.5642 5.64125 27.6029 5.68805 27.6547 5.71564C27.6799 5.72888 27.7075 5.73701 27.7359 5.73956C27.7643 5.74211 27.7928 5.73902 27.82 5.73048C27.8472 5.72195 27.8724 5.70813 27.8941 5.68983C27.9159 5.67153 27.9338 5.64912 27.9468 5.62389C27.972 5.57178 27.9766 5.51208 27.9595 5.45678C27.9424 5.40148 27.9049 5.35466 27.8545 5.32569C27.8293 5.31245 27.8018 5.30432 27.7734 5.30177C27.745 5.29922 27.7164 5.30231 27.6892 5.31085C27.6621 5.31938 27.6369 5.3332 27.6151 5.3515C27.5933 5.36979 27.5755 5.39221 27.5625 5.41744Z" stroke="#E9B566" stroke-width="0.69" stroke-linecap="round" stroke-linejoin="round"/>
<path d="M25.0568 4.43869C25.0398 4.49243 25.0448 4.55066 25.0707 4.60076C25.0966 4.65085 25.1413 4.68878 25.1951 4.70631C25.2511 4.72114 25.3107 4.71441 25.362 4.68749C25.4133 4.66057 25.4525 4.61542 25.4718 4.56103C25.4825 4.53455 25.4874 4.50607 25.4861 4.47755C25.4848 4.44902 25.4773 4.42111 25.4642 4.39572C25.451 4.37032 25.4326 4.34804 25.41 4.33039C25.3875 4.31274 25.3613 4.30012 25.3334 4.2934C25.2774 4.27662 25.2169 4.28245 25.1652 4.30963C25.1134 4.33682 25.0745 4.38317 25.0568 4.43869Z" stroke="#E9B566" stroke-width="0.69" stroke-linecap="round" stroke-linejoin="round"/>
<path d="M22.4294 3.83468C22.4225 3.89213 22.4376 3.95005 22.4718 3.99684C22.506 4.04364 22.5567 4.07583 22.6138 4.087C22.6411 4.09251 22.6692 4.0925 22.6965 4.08697C22.7238 4.08144 22.7497 4.0705 22.7727 4.05481C22.7956 4.03911 22.8151 4.01897 22.8301 3.99561C22.8451 3.97224 22.8552 3.9461 22.8598 3.91878C22.8653 3.89016 22.8652 3.86073 22.8593 3.83217C22.8534 3.80361 22.842 3.77648 22.8256 3.75233C22.8091 3.72819 22.7881 3.70749 22.7636 3.69144C22.7392 3.67539 22.7118 3.66431 22.683 3.65881C22.6547 3.65331 22.6256 3.65354 22.5973 3.65946C22.5691 3.66539 22.5424 3.67689 22.5188 3.6933C22.4951 3.7097 22.475 3.73067 22.4596 3.75496C22.4443 3.77924 22.434 3.80636 22.4294 3.83468Z" stroke="#E9B566" stroke-width="0.69" stroke-linecap="round" stroke-linejoin="round"/>
<path d="M19.7383 3.68175C19.7402 3.73995 19.7643 3.79525 19.8057 3.83643C19.8471 3.87761 19.9027 3.90158 19.9612 3.90349C20.0189 3.90151 20.0737 3.87728 20.1138 3.8359C20.154 3.79453 20.1764 3.73925 20.1764 3.68175C20.1764 3.62496 20.1537 3.57051 20.1133 3.53036C20.073 3.49021 20.0182 3.46765 19.9612 3.46765C19.9034 3.46762 19.8478 3.48993 19.8062 3.52987C19.7646 3.56982 19.7403 3.62427 19.7383 3.68175Z" stroke="#E9B566" stroke-width="0.69" stroke-linecap="round" stroke-linejoin="round"/>
<path d="M17.0646 3.93404C17.0683 3.96205 17.0777 3.98901 17.0923 4.01326C17.1068 4.03751 17.1262 4.05852 17.1493 4.075C17.1723 4.09149 17.1986 4.10309 17.2263 4.10909C17.254 4.1151 17.2827 4.11537 17.3106 4.1099C17.3393 4.1044 17.3668 4.09331 17.3912 4.07727C17.4157 4.06122 17.4367 4.04053 17.4531 4.01639C17.4696 3.99224 17.481 3.96511 17.4869 3.93655C17.4928 3.90798 17.4929 3.87855 17.4873 3.84993C17.4837 3.82192 17.4743 3.79497 17.4597 3.77072C17.4451 3.74647 17.4257 3.72546 17.4027 3.70898C17.3796 3.69249 17.3534 3.68089 17.3257 3.67489C17.2979 3.66888 17.2692 3.6686 17.2414 3.67407C17.2126 3.67957 17.1852 3.69066 17.1608 3.7067C17.1363 3.72275 17.1152 3.74344 17.0988 3.76758C17.0824 3.79173 17.0709 3.81886 17.0651 3.84742C17.0592 3.87598 17.059 3.90542 17.0646 3.93404Z" stroke="#E9B566" stroke-width="0.69" stroke-linecap="round" stroke-linejoin="round"/>
<path d="M14.452 4.58398C14.4713 4.63837 14.5105 4.68351 14.5618 4.71044C14.6131 4.73736 14.6727 4.74409 14.7287 4.72926C14.756 4.72149 14.7813 4.70824 14.8032 4.69035C14.8251 4.67245 14.8431 4.6503 14.8561 4.62522C14.869 4.60015 14.8767 4.57269 14.8786 4.54455C14.8805 4.51642 14.8765 4.4882 14.867 4.46163C14.8493 4.40612 14.8104 4.35977 14.7586 4.33258C14.7069 4.3054 14.6464 4.29957 14.5904 4.31635C14.5625 4.32307 14.5364 4.33568 14.5138 4.35334C14.4912 4.37099 14.4728 4.39327 14.4596 4.41866C14.4465 4.44406 14.439 4.47197 14.4377 4.5005C14.4364 4.52902 14.4413 4.5575 14.452 4.58398Z" stroke="#E9B566" stroke-width="0.69" stroke-linecap="round" stroke-linejoin="round"/>
<path d="M11.9844 5.6621C12.012 5.71162 12.0577 5.74872 12.1121 5.76579C12.1664 5.78285 12.2252 5.77858 12.2764 5.75385C12.3268 5.72488 12.3642 5.67805 12.3813 5.62275C12.3984 5.56745 12.3939 5.50776 12.3686 5.45565C12.3557 5.43042 12.3378 5.408 12.316 5.3897C12.2943 5.37141 12.2691 5.35758 12.2419 5.34904C12.2147 5.34051 12.1861 5.33743 12.1577 5.33998C12.1294 5.34253 12.1018 5.35066 12.0766 5.3639C12.0248 5.39149 11.9861 5.43829 11.9688 5.49413C11.9516 5.54996 11.9572 5.61033 11.9844 5.6621Z" stroke="#E9B566" stroke-width="0.69" stroke-linecap="round" stroke-linejoin="round"/>
<path d="M9.70084 7.08429C9.71747 7.10708 9.73861 7.12624 9.76295 7.14061C9.7873 7.15497 9.81434 7.16423 9.84242 7.16781C9.87049 7.17139 9.89899 7.16922 9.9262 7.16143C9.9534 7.15364 9.97873 7.14039 10.0006 7.12251C10.0238 7.10646 10.0436 7.08601 10.0589 7.06233C10.0742 7.03865 10.0846 7.01221 10.0896 6.98451C10.0946 6.95681 10.0941 6.9284 10.088 6.90091C10.082 6.87343 10.0705 6.8474 10.0544 6.82431C10.0397 6.79558 10.0189 6.77039 9.99344 6.75048C9.96798 6.73056 9.93846 6.71641 9.90694 6.709C9.87542 6.70159 9.84264 6.70111 9.81092 6.70759C9.77919 6.71406 9.74927 6.72733 9.72322 6.74649C9.69717 6.76564 9.67563 6.79021 9.6601 6.81848C9.64457 6.84676 9.63543 6.87807 9.6333 6.91022C9.63116 6.94238 9.6361 6.9746 9.64777 7.00466C9.65943 7.03472 9.67755 7.0619 9.70084 7.08429Z" stroke="#E9B566" stroke-width="0.69" stroke-linecap="round" stroke-linejoin="round"/>
<path d="M7.68764 8.86586C7.73036 8.90564 7.78667 8.92778 7.84519 8.92778C7.9037 8.92778 7.96003 8.90564 8.00275 8.86586C8.0232 8.84593 8.03944 8.82214 8.05053 8.79588C8.06162 8.76962 8.06735 8.74142 8.06735 8.71294C8.06735 8.68445 8.06162 8.65627 8.05053 8.63001C8.03944 8.60375 8.0232 8.57995 8.00275 8.56001C7.96003 8.52024 7.9037 8.49811 7.84519 8.49811C7.78667 8.49811 7.73036 8.52024 7.68764 8.56001C7.66719 8.57995 7.65093 8.60375 7.63984 8.63001C7.62875 8.65627 7.62305 8.68445 7.62305 8.71294C7.62305 8.74142 7.62875 8.76962 7.63984 8.79588C7.65093 8.82214 7.66719 8.84593 7.68764 8.86586Z" stroke="#E9B566" stroke-width="0.69" stroke-linecap="round" stroke-linejoin="round"/>
<path d="M5.97389 10.9304C5.99709 10.9464 6.02326 10.9578 6.05089 10.9638C6.07852 10.9699 6.10706 10.9704 6.1349 10.9654C6.16274 10.9604 6.18932 10.9501 6.21312 10.9349C6.23693 10.9197 6.2575 10.8999 6.27364 10.8768C6.30315 10.8279 6.31396 10.7701 6.30408 10.7139C6.2942 10.6577 6.26428 10.607 6.21983 10.571C6.197 10.5539 6.17085 10.5416 6.14304 10.535C6.11523 10.5284 6.08635 10.5276 6.05821 10.5326C6.03006 10.5376 6.00326 10.5484 5.97949 10.5642C5.95573 10.58 5.9355 10.6005 5.92008 10.6245C5.88702 10.6723 5.87414 10.7312 5.8842 10.7884C5.89426 10.8456 5.92646 10.8965 5.97389 10.9304Z" stroke="#E9B566" stroke-width="0.69" stroke-linecap="round" stroke-linejoin="round"/>
<path d="M4.59758 13.2395C4.62381 13.2527 4.65241 13.2605 4.68169 13.2626C4.71097 13.2647 4.74036 13.261 4.76821 13.2518C4.79607 13.2426 4.82182 13.2279 4.84397 13.2088C4.86613 13.1896 4.88427 13.1663 4.89733 13.1401C4.91048 13.1156 4.91853 13.0888 4.921 13.0611C4.92346 13.0335 4.9203 13.0056 4.91169 12.9792C4.90308 12.9528 4.88921 12.9283 4.8709 12.9074C4.85258 12.8864 4.8302 12.8694 4.80511 12.8572C4.75307 12.8301 4.69241 12.8246 4.63628 12.8418C4.58016 12.859 4.5331 12.8975 4.50536 12.949C4.49205 12.974 4.4839 13.0015 4.48134 13.0297C4.47878 13.0579 4.48186 13.0864 4.49044 13.1134C4.49902 13.1405 4.51291 13.1655 4.5313 13.1872C4.54969 13.2088 4.57222 13.2266 4.59758 13.2395Z" stroke="#E9B566" stroke-width="0.69" stroke-linecap="round" stroke-linejoin="round"/>
<path d="M3.62228 15.7322C3.6495 15.7418 3.67838 15.7457 3.70718 15.7439C3.73599 15.7421 3.76414 15.7346 3.78995 15.7218C3.81577 15.7089 3.83871 15.691 3.85743 15.6692C3.87616 15.6474 3.8903 15.622 3.89897 15.5946C3.91388 15.5389 3.90711 15.4796 3.88004 15.4286C3.85298 15.3775 3.80761 15.3385 3.75294 15.3193C3.72572 15.3098 3.69684 15.3058 3.66804 15.3076C3.63923 15.3094 3.61108 15.317 3.58527 15.3298C3.55945 15.3426 3.53649 15.3605 3.51776 15.3824C3.49904 15.4042 3.48492 15.4296 3.47625 15.457C3.45938 15.5127 3.46525 15.5728 3.49257 15.6244C3.5199 15.6759 3.56648 15.7146 3.62228 15.7322Z" stroke="#E9B566" stroke-width="0.69" stroke-linecap="round" stroke-linejoin="round"/>
<path d="M3.0307 18.3472C3.08814 18.3523 3.1455 18.3366 3.19214 18.3028C3.23878 18.2691 3.27152 18.2197 3.28432 18.1637C3.29321 18.108 3.27963 18.051 3.24653 18.0052C3.21343 17.9594 3.16349 17.9284 3.10756 17.919C3.04861 17.91 2.98845 17.9241 2.93972 17.9584C2.891 17.9926 2.85747 18.0443 2.84623 18.1025C2.84189 18.1307 2.84326 18.1594 2.85022 18.187C2.85718 18.2147 2.86963 18.2407 2.88681 18.2634C2.90399 18.2862 2.92554 18.3054 2.95025 18.3197C2.97496 18.3341 3.00232 18.3435 3.0307 18.3472Z" stroke="#E9B566" stroke-width="0.69" stroke-linecap="round" stroke-linejoin="round"/>
<path d="M2.88527 21.0234C2.91746 21.0294 2.9506 21.0283 2.98232 21.0201C3.01404 21.012 3.04353 20.997 3.06875 20.9762C3.09397 20.9553 3.11428 20.9293 3.12821 20.8998C3.14214 20.8703 3.14936 20.8381 3.14936 20.8055C3.14936 20.7729 3.14214 20.7407 3.12821 20.7112C3.11428 20.6817 3.09397 20.6556 3.06875 20.6348C3.04353 20.614 3.01404 20.599 2.98232 20.5908C2.9506 20.5826 2.91746 20.5815 2.88527 20.5876C2.85635 20.5875 2.82771 20.5933 2.80109 20.6046C2.77446 20.6158 2.75039 20.6323 2.7303 20.6529C2.71021 20.6736 2.69454 20.6982 2.68419 20.725C2.67384 20.7519 2.66904 20.7805 2.67007 20.8093C2.66899 20.8377 2.6738 20.866 2.68424 20.8925C2.69467 20.9189 2.7105 20.943 2.7307 20.9631C2.7509 20.9832 2.77505 20.9989 2.80165 21.0093C2.82825 21.0197 2.85672 21.0245 2.88527 21.0234Z" stroke="#E9B566" stroke-width="0.69" stroke-linecap="round" stroke-linejoin="round"/>
<path d="M23.798 14.7076V16.8562H30.0079C30.292 16.8562 30.5645 16.9679 30.766 17.1671C30.9676 17.3662 31.0819 17.6365 31.0839 17.9191V23.2714C31.0819 23.554 30.9676 23.8243 30.766 24.0234C30.5645 24.2225 30.292 24.3343 30.0079 24.3343H23.798V30.5201C23.798 30.802 23.6854 31.0723 23.4851 31.2716C23.2847 31.4709 23.013 31.5829 22.7297 31.5829H21.2617" stroke="#E9B566" stroke-width="0.9" stroke-linecap="round" stroke-linejoin="round"/>
<path d="M16.3113 26.4599V24.3113H10.1014C9.81733 24.3113 9.54481 24.1996 9.34325 24.0005C9.14168 23.8014 9.02742 23.531 9.02539 23.2485V17.8961C9.02742 17.6135 9.14168 17.3432 9.34325 17.1441C9.54481 16.945 9.81733 16.8333 10.1014 16.8333H16.3113V10.6628C16.3113 10.3788 16.4247 10.1066 16.6265 9.90582C16.8283 9.70507 17.1019 9.59229 17.3873 9.59229H18.9244" stroke="#E9B566" stroke-width="0.9" stroke-linecap="round" stroke-linejoin="round"/>
<path d="M9.32422 26.2611C9.67315 27.3881 10.2462 28.4339 11.0093 29.3363C11.7724 30.2387 12.7101 30.9793 13.7665 31.5141C14.4035 31.8611 15.099 32.0892 15.8185 32.187" stroke="#E9B566" stroke-width="0.9" stroke-linecap="round" stroke-linejoin="round"/>
<path d="M12.8987 27.8897C14.9047 26.5898 16.8722 28.4708 18.2018 29.8395C18.9703 30.6423 20.5075 31.7205 20.1386 32.9974C19.8388 34.0373 18.4785 34.4043 17.5562 34.6031C15.3274 35.0848 12.0687 34.9166 10.4547 33.0203C10.3187 32.8512 10.1954 32.6723 10.0858 32.4851C9.94544 32.2218 9.86211 31.9321 9.84118 31.6347C9.82025 31.3373 9.86217 31.0389 9.96427 30.7587C10.0664 30.4784 10.2264 30.2226 10.434 30.0076C10.6416 29.7927 10.8921 29.6234 11.1695 29.5107" stroke="#E9B566" stroke-width="0.9" stroke-linecap="round" stroke-linejoin="round"/>
<path d="M12.623 30.7953C12.9518 30.8967 13.3016 30.9105 13.6374 30.8354C13.9732 30.7603 14.2833 30.5988 14.5368 30.3671" stroke="#E9B566" stroke-width="0.9" stroke-linecap="round" stroke-linejoin="round"/>
<path d="M29.4925 15.2505C29.2553 14.2207 28.8127 13.2488 28.1909 12.3925C27.5691 11.5361 26.7807 10.8127 25.8726 10.2651C25.3235 9.90617 24.7145 9.64727 24.0742 9.50049" stroke="#E9B566" stroke-width="0.9" stroke-linecap="round" stroke-linejoin="round"/>
<path d="M26.4171 13.5301C24.5342 14.5623 22.8971 12.7655 21.8058 11.4427C21.1525 10.6781 19.8767 9.60757 20.2687 8.48357C20.6068 7.58132 21.8442 7.33664 22.6896 7.22195C24.7109 6.93139 27.6161 7.29841 28.938 9.09528C29.05 9.25465 29.1478 9.42352 29.2301 9.59993C29.3389 9.84491 29.3947 10.1099 29.394 10.3777C29.3933 10.6456 29.336 10.9102 29.2258 11.1546C29.1157 11.399 28.9552 11.6177 28.7546 11.7964C28.5541 11.9751 28.3181 12.1099 28.0619 12.192" stroke="#E9B566" stroke-width="0.9" stroke-linecap="round" stroke-linejoin="round"/>
<path d="M26.8404 10.9533C26.5535 10.8407 26.2419 10.8055 25.9369 10.8511C25.6319 10.8968 25.3444 11.0217 25.1035 11.2133" stroke="#E9B566" stroke-width="0.9" stroke-linecap="round" stroke-linejoin="round"/>
</g>
<defs>
<clipPath id="clip0_3034_1617">
<rect width="35.2" height="33.2" fill="white" transform="translate(2.40039 3.20001)"/>
</clipPath>
</defs>
</svg>
