<svg width="40" height="41" viewBox="0 0 40 41" fill="none" xmlns="http://www.w3.org/2000/svg">
<g clip-path="url(#clip0_3034_1584)">
<path d="M26.3555 7.54706L26.4903 8.27175" stroke="#E9B566" stroke-width="0.9" stroke-linecap="round" stroke-linejoin="round"/>
<path d="M18.2585 18.242C18.015 17.9259 17.7947 17.5919 17.5994 17.2427C15.8993 14.1304 16.2288 9.33212 12.484 7.7149C12.1826 8.68418 12.0888 9.70802 12.209 10.7174C12.3291 11.7267 12.6604 12.698 13.1805 13.5659" stroke="#E9B566" stroke-width="0.9" stroke-linecap="round" stroke-linejoin="round"/>
<path d="M24.3262 21.446C23.6996 22.5814 22.8196 23.5509 21.7573 24.2761C20.5373 24.9549 19.1523 25.2646 17.7653 25.1686C17.0987 25.1686 16.4321 25.1686 15.7656 25.1686C10.6876 25.1686 9.27951 25.5882 8.61293 24.5507C8.03623 23.6582 8.53804 21.4994 8.91252 20.5229C7.84534 19.0155 7.27619 17.2016 7.28727 15.3433C7.34231 14.2127 7.61993 13.105 8.10364 12.086C9.04698 10.1738 10.5885 8.63588 12.4851 7.7149" stroke="#E9B566" stroke-width="0.9" stroke-linecap="round" stroke-linejoin="round"/>
<path d="M11.0474 8.56165C8.99528 11.613 10.1787 16.5257 12.6502 19.0049" stroke="#E9B566" stroke-width="0.9" stroke-linecap="round" stroke-linejoin="round"/>
<path d="M16.3262 13.6803C17.1591 14.1129 17.8919 14.7214 18.4757 15.4653C19.6591 16.93 19.8763 18.6921 20.3856 20.4543" stroke="#E9B566" stroke-width="0.9" stroke-linecap="round" stroke-linejoin="round"/>
<path d="M13.7656 7.16567C14.7448 6.8295 15.7733 6.66695 16.8064 6.68508C18.941 6.73085 19.8023 7.44792 21.0231 6.87579C21.7721 6.52489 23.1352 5.46455 23.5246 5.27384C23.5831 5.24587 23.6484 5.23602 23.7123 5.24552C23.7762 5.25501 23.836 5.28343 23.8842 5.32724C24.2842 5.79605 24.5737 6.35183 24.7305 6.95207H25.5319C25.6289 6.95178 25.7247 6.97434 25.8118 7.01801C25.8988 7.06169 25.9748 7.12528 26.0337 7.20381L26.3932 7.66151C26.5208 7.53294 26.693 7.46082 26.8725 7.46082C27.052 7.46082 27.2243 7.53294 27.3519 7.66151L27.8687 8.37095L28.8498 8.44723C30.4226 8.75237 30.0781 10.8273 29.7261 12.1012C29.5538 12.7115 29.3891 13.3294 29.2467 13.9549C29.2031 14.1557 29.234 14.3659 29.3336 14.5448C29.4332 14.7238 29.5944 14.8588 29.786 14.9237C30.2721 15.0849 30.7453 15.2838 31.2015 15.5187C31.6434 15.7476 32.6246 16.1671 33.3286 16.4646C33.8574 16.6885 34.4147 16.8349 34.9838 16.8995L36.8637 17.1131" stroke="#E9B566" stroke-width="0.9" stroke-linecap="round" stroke-linejoin="round"/>
<path d="M10.807 31.6603H21.2401C21.4016 31.6623 21.5559 31.7291 21.6695 31.8462C21.7831 31.9633 21.8467 32.1212 21.8467 32.2858V33.4453C21.8467 33.6092 21.7828 33.7664 21.669 33.8823C21.5553 33.9981 21.401 34.0632 21.2401 34.0632H8.29045C8.18591 34.0643 8.08223 34.044 7.98546 34.0038C7.88868 33.9635 7.80076 33.904 7.72684 33.8287C7.65292 33.7534 7.59448 33.6638 7.55494 33.5653C7.5154 33.4667 7.49555 33.3611 7.49655 33.2546V31.1339C7.49655 30.7293 7.65436 30.3413 7.93528 30.0551C8.2162 29.769 8.5972 29.6083 8.99448 29.6083H22.1763C22.5736 29.6083 22.9546 29.769 23.2355 30.0551C23.5164 30.3413 23.6742 30.7293 23.6742 31.1339V34.2387C23.6742 34.6433 23.5164 35.0314 23.2355 35.3175C22.9546 35.6036 22.5736 35.7644 22.1763 35.7644H3.45213C3.38532 35.7624 3.32086 35.7389 3.26808 35.6971C3.2153 35.6554 3.17695 35.5976 3.15859 35.5321C3.14023 35.4667 3.14281 35.397 3.16596 35.3331C3.18912 35.2693 3.23164 35.2146 3.28736 35.177L5.63162 33.5827" stroke="#E9B566" stroke-width="0.9" stroke-linecap="round" stroke-linejoin="round"/>
<path d="M12.6488 26.8544L8.125 29.8905" stroke="#E9B566" stroke-width="0.9" stroke-linecap="round" stroke-linejoin="round"/>
<path d="M23.4277 35.055L26.521 31.1721" stroke="#E9B566" stroke-width="0.9" stroke-linecap="round" stroke-linejoin="round"/>
<path d="M22.3184 29.6235L26.3328 26.0916" stroke="#E9B566" stroke-width="0.9" stroke-linecap="round" stroke-linejoin="round"/>
<path d="M8.91211 20.5534L9.66108 20.7136C11.0163 21.0181 12.4001 21.1716 13.7879 21.1713H15.9" stroke="#E9B566" stroke-width="0.9" stroke-linecap="round" stroke-linejoin="round"/>
<path d="M22.8047 20.5534L25.6582 22.0791C27.5157 23.0555 28.9312 24.8024 28.729 26.0535C28.6788 26.3763 28.6587 26.7032 28.6691 27.0299C28.7258 28.3927 29.1691 29.7096 29.9454 30.8211C30.7217 31.9326 31.7977 32.7911 33.043 33.2928C33.4924 33.4911 33.9418 33.6742 34.3762 33.8725" stroke="#E9B566" stroke-width="0.9" stroke-linecap="round" stroke-linejoin="round"/>
<path d="M28.7305 26.023C29.1057 25.0798 29.7306 24.2612 30.5355 23.6582C30.901 23.3907 31.3019 23.1775 31.7263 23.025" stroke="#E9B566" stroke-width="0.9" stroke-linecap="round" stroke-linejoin="round"/>
<path d="M29.2471 13.9091C29.2471 13.9091 28.6479 16.251 27.3223 16.8842" stroke="#E9B566" stroke-width="0.9" stroke-linecap="round" stroke-linejoin="round"/>
</g>
<defs>
<clipPath id="clip0_3034_1584">
<rect width="34.4" height="31.2" fill="white" transform="translate(2.80078 4.90002)"/>
</clipPath>
</defs>
</svg>
