<svg width="40" height="40" viewBox="0 0 40 40" fill="none" xmlns="http://www.w3.org/2000/svg">
<g clip-path="url(#clip0_6001_47767)">
<path d="M17.391 11.2788C16.8559 10.4971 16.5267 9.59362 16.4336 8.65169C16.4336 8.30715 16.7503 7.02947 18.1613 5.78051C18.8645 5.17234 19.6783 4.70448 20.5584 4.40234" stroke="white" stroke-width="0.9" stroke-linecap="round" stroke-linejoin="round"/>
<path d="M17.3906 11.2773C17.5063 11.9424 17.7576 12.5767 18.1291 13.1409C18.5006 13.7052 18.9843 14.1874 19.5502 14.5577C19.7108 14.6691 19.9017 14.7292 20.0973 14.7299C20.2952 14.7293 20.4884 14.6693 20.6516 14.5577C21.2252 14.1905 21.7172 13.7099 22.0973 13.1457C22.4774 12.5815 22.7375 11.9457 22.8616 11.2773" stroke="white" stroke-width="0.9" stroke-linecap="round" stroke-linejoin="round"/>
<path d="M21.4734 6.84375C21.192 7.33687 20.8064 7.76304 20.3432 8.09271C19.8897 8.42289 19.3642 8.65977 18.9035 9.00431C18.1396 9.55494 17.6024 10.3636 17.3918 11.2797C17.1883 11.4298 17.0428 11.6452 16.9799 11.8897C16.917 12.1341 16.9404 12.3927 17.0463 12.622C17.4494 13.4044 17.579 13.8423 17.1974 14.1653" stroke="white" stroke-width="0.9" stroke-linecap="round" stroke-linejoin="round"/>
<path d="M20.082 8.28516C20.3349 8.3831 20.5763 8.50826 20.8019 8.65841C21.7344 9.31327 22.4569 10.2232 22.8823 11.2784" stroke="white" stroke-width="0.9" stroke-linecap="round" stroke-linejoin="round"/>
<path d="M18.334 4.96255C18.248 4.75327 18.248 4.51866 18.334 4.30937C18.4869 4.01369 18.743 3.78393 19.0539 3.66335C19.3616 3.44391 19.6953 3.2631 20.0473 3.125C20.1913 3.125 20.5656 3.125 21.4007 3.94329C22.0407 4.60648 22.5814 5.35835 23.006 6.17563C23.3554 6.69273 23.6135 7.26567 23.769 7.86963C23.8505 8.61716 23.7492 9.37324 23.4739 10.0733C23.3418 10.4914 23.1682 10.8954 22.9556 11.2792" stroke="white" stroke-width="0.9" stroke-linecap="round" stroke-linejoin="round"/>
<path d="M5.125 20.2344V20.3779V33.1906" stroke="white" stroke-width="0.9" stroke-linecap="round" stroke-linejoin="round"/>
<path d="M18.8811 13.9922C19.1906 15.0043 17.8589 15.5498 16.9374 15.7364C16.4929 15.7959 16.0528 15.8846 15.6201 16.002C15.2449 16.1541 14.9089 16.3886 14.6372 16.6881C14.3654 16.9876 14.165 17.3444 14.0508 17.7319" stroke="white" stroke-width="0.9" stroke-linecap="round" stroke-linejoin="round"/>
<path d="M21.3924 13.9922C21.0757 15.0043 22.4074 15.5498 23.3289 15.7364C23.7734 15.7959 24.2135 15.8846 24.6462 16.002C25.0215 16.1541 25.3574 16.3886 25.6292 16.6881C25.9009 16.9876 26.1013 17.3444 26.2155 17.7319L26.7194 20.2514C24.5927 20.6263 22.4363 20.8089 20.2766 20.7969C17.997 20.7965 15.7231 20.5705 13.4883 20.1222L13.8986 18.3349C13.9354 18.1354 13.9859 17.9388 14.0498 17.7463" stroke="white" stroke-width="0.9" stroke-linecap="round" stroke-linejoin="round"/>
<path d="M34.7461 20.3867L34.8757 33.1922" stroke="white" stroke-width="0.9" stroke-linecap="round" stroke-linejoin="round"/>
<path d="M8.66016 33.1931V22.2539" stroke="white" stroke-width="0.9" stroke-linecap="round" stroke-linejoin="round"/>
<path d="M13.0586 35.6757V24.9375" stroke="white" stroke-width="0.9" stroke-linecap="round" stroke-linejoin="round"/>
<path d="M17.8359 34.1168V23.2422" stroke="white" stroke-width="0.9" stroke-linecap="round" stroke-linejoin="round"/>
<path d="M22.5469 35.7203V25.707" stroke="white" stroke-width="0.9" stroke-linecap="round" stroke-linejoin="round"/>
<path d="M26.9375 32.3373V22.9414" stroke="white" stroke-width="0.9" stroke-linecap="round" stroke-linejoin="round"/>
<path d="M31.207 35.0871V24.9375" stroke="white" stroke-width="0.9" stroke-linecap="round" stroke-linejoin="round"/>
<path d="M15.7852 20.3794L16.1091 19.5898L16.2963 20.3794" stroke="white" stroke-width="0.9" stroke-linecap="round" stroke-linejoin="round"/>
<path d="M23.5469 20.3794L23.734 19.5898L24.058 20.3794" stroke="white" stroke-width="0.9" stroke-linecap="round" stroke-linejoin="round"/>
<path d="M27.3058 19.043C27.7665 19.1435 28.4719 19.3301 28.4719 19.5598C28.4719 19.7895 27.7881 20.0407 26.7227 20.2776" stroke="white" stroke-width="0.9" stroke-linecap="round" stroke-linejoin="round"/>
<path d="M13.491 20.1231C12.5479 19.9078 11.9648 19.6709 11.9648 19.4412C11.9648 19.2115 12.4328 19.068 12.8863 18.9531" stroke="white" stroke-width="0.9" stroke-linecap="round" stroke-linejoin="round"/>
<path d="M19.1992 19.0961C19.3964 19.1617 19.5727 19.2781 19.7103 19.4334C19.8123 19.5446 19.8928 19.6736 19.9479 19.8139C20.0141 19.6581 20.1066 19.5149 20.2214 19.3903C20.3841 19.2017 20.5854 19.05 20.8117 18.9453" stroke="white" stroke-width="0.9" stroke-linecap="round" stroke-linejoin="round"/>
<path d="M28.3185 18.0541C32.141 18.5781 34.6749 19.4394 34.6749 20.4084C34.6703 20.5474 34.6253 20.6821 34.5454 20.796C34.1494 21.3631 32.8897 21.8871 31.0324 22.2962C29.6329 22.5952 28.2172 22.8133 26.7924 22.9494C25.4462 23.0858 23.9777 23.1863 22.43 23.2365C21.6094 23.2653 20.7671 23.2796 19.9033 23.2796C19.1834 23.2796 18.4635 23.2796 17.7437 23.2796C16.052 23.2294 14.4539 23.1289 12.9997 22.9781C11.5308 22.8386 10.0716 22.6109 8.63014 22.2962C6.47054 21.7938 5.11719 21.1478 5.11719 20.4371C5.11719 19.4394 7.88148 18.5637 11.9055 18.0469" stroke="white" stroke-width="0.9" stroke-linecap="round" stroke-linejoin="round"/>
<path d="M5.125 33.1836C5.125 33.6143 5.60012 34.0162 6.45676 34.3823C7.17007 34.6703 7.9071 34.8961 8.65955 35.057C10.0256 35.3554 11.4076 35.5758 12.7988 35.7174H13.0579C14.4977 35.8681 16.1318 35.9758 17.8379 36.0189C18.5577 36.0189 19.2776 36.0548 19.9975 36.0548C20.8613 36.0548 21.7107 36.0548 22.5386 36.0117C24.1007 35.9615 25.5764 35.861 26.9298 35.7174H27.1817C28.5311 35.5786 29.8719 35.3678 31.1986 35.0858C31.9209 34.9329 32.6307 34.7265 33.3222 34.4685C33.8766 34.309 34.3753 33.9982 34.762 33.5712C34.8419 33.4573 34.8869 33.3226 34.8915 33.1836" stroke="white" stroke-width="0.9" stroke-linecap="round" stroke-linejoin="round"/>
</g>
<defs>
<clipPath id="clip0_6001_47767">
<rect width="30.4" height="33.6" fill="white" transform="translate(4.80078 2.80078)"/>
</clipPath>
</defs>
</svg>
