<svg width="40" height="41" viewBox="0 0 40 41" fill="none" xmlns="http://www.w3.org/2000/svg">
<g clip-path="url(#clip0_3034_1543)">
<path d="M22.7289 26.8122C21.9575 27.2485 21.0985 27.5056 20.215 27.5645C19.3298 27.5156 18.4686 27.2578 17.7012 26.8122L18.1443 26.2297C18.3124 25.9924 18.5528 25.8164 18.8292 25.7282C18.9183 25.7015 19.0103 25.6852 19.1031 25.6796C19.6591 25.6311 19.7799 25.8495 20.2311 25.8576C20.6823 25.8657 20.7952 25.6392 21.3511 25.6958C21.5343 25.7142 21.7116 25.7712 21.8713 25.8632C22.031 25.9553 22.1695 26.0802 22.2777 26.2297L22.7289 26.8122Z" stroke="#E9B566" stroke-width="0.9" stroke-linecap="round" stroke-linejoin="round"/>
<path d="M18.5059 28.6971L18.9248 29.0126C19.131 29.1254 19.3592 29.1917 19.5936 29.2067H20.6894C20.7805 29.2151 20.8722 29.2151 20.9633 29.2067C21.1905 29.1729 21.4093 29.096 21.6079 28.9802L21.8577 28.7699" stroke="#E9B566" stroke-width="0.9" stroke-linecap="round" stroke-linejoin="round"/>
<path d="M21.6404 22.46C21.6404 22.6218 21.4792 22.6622 21.0038 22.9939C20.7321 23.1563 20.4217 23.242 20.1055 23.242C19.7892 23.242 19.4788 23.1563 19.2071 22.9939C18.7237 22.6622 18.6028 22.6218 18.5625 22.46" stroke="#E9B566" stroke-width="0.9" stroke-linecap="round" stroke-linejoin="round"/>
<path d="M11.9395 17.4201C12.1465 17.2633 12.3973 17.1756 12.6566 17.1693C12.9466 17.1615 13.2307 17.2528 13.4623 17.4282C13.8229 17.743 14.2542 17.9651 14.7192 18.0754C15.0422 18.144 15.3741 18.1603 15.7022 18.1239C16.1434 18.0635 16.5779 17.9606 16.9994 17.8165L17.7487 17.5981" stroke="#E9B566" stroke-width="0.9" stroke-linecap="round" stroke-linejoin="round"/>
<path d="M13.5098 18.6254C13.6014 18.4532 13.7339 18.3063 13.8955 18.1977C14.0571 18.089 14.2428 18.022 14.4363 18.0025" stroke="#E9B566" stroke-width="0.9" stroke-linecap="round" stroke-linejoin="round"/>
<path d="M28.1997 17.4201C27.9934 17.2618 27.7421 17.174 27.4826 17.1693C27.1925 17.1615 26.9085 17.2528 26.6768 17.4282C26.3206 17.7448 25.8914 17.9673 25.428 18.0754C25.1022 18.1439 24.7678 18.1602 24.4369 18.1239C23.9982 18.064 23.5664 17.961 23.1478 17.8165L22.3984 17.5981" stroke="#E9B566" stroke-width="0.9" stroke-linecap="round" stroke-linejoin="round"/>
<path d="M25.709 18.0025C25.9015 18.0219 26.0862 18.0889 26.2465 18.1977C26.4068 18.3064 26.5377 18.4534 26.6275 18.6254" stroke="#E9B566" stroke-width="0.9" stroke-linecap="round" stroke-linejoin="round"/>
<path d="M10.3437 24.086C9.66311 21.5408 9.32971 18.9147 9.35267 16.2795C9.72189 15.2008 10.1828 14.1561 10.7305 13.1568C11.8342 10.9822 13.4024 9.07903 15.3231 7.58306C16.2812 6.86318 17.3195 6.25776 18.4171 5.77905" stroke="#E9B566" stroke-width="0.9" stroke-linecap="round" stroke-linejoin="round"/>
<path d="M29.9066 24.0132C30.5434 21.4758 30.8308 18.8628 30.7607 16.2471C30.6156 15.8992 30.3981 15.4381 30.1161 14.8071C27.7714 9.84817 24.0409 5.9085 18.8359 4.06406" stroke="#E9B566" stroke-width="0.9" stroke-linecap="round" stroke-linejoin="round"/>
<path d="M17.6835 14.5968C17.1849 14.048 16.5135 13.6881 15.782 13.5775C14.7932 13.4362 13.7895 13.4362 12.8008 13.5775" stroke="#E9B566" stroke-width="0.9" stroke-linecap="round" stroke-linejoin="round"/>
<path d="M21.7539 14.5887C22.2491 14.0356 22.9221 13.6748 23.6554 13.5694C24.6465 13.4236 25.6535 13.4236 26.6446 13.5694" stroke="#E9B566" stroke-width="0.9" stroke-linecap="round" stroke-linejoin="round"/>
<path d="M12.1004 31.7631C11.7861 31.0674 11.4719 30.3717 11.1657 29.6679L8.79688 26.1165C9.07757 25.8498 9.44437 25.6934 9.83039 25.6755C10.2164 25.6577 10.5959 25.7798 10.8998 26.0194C11.6624 26.5791 12.3455 27.2404 12.9302 27.9852C13.1559 28.2441 13.3573 28.4787 13.5426 28.6809L13.8004 28.9802C14.3967 29.6517 16.0323 31.1968 16.0323 31.1968C17.4987 32.5721 18.248 33.2678 18.4092 34.3032C18.507 35.0854 18.3242 35.8769 17.8935 36.536" stroke="#E9B566" stroke-width="0.9" stroke-linecap="round" stroke-linejoin="round"/>
<path d="M7.96823 24.8868L7.46062 23.7058L7.21085 22.8968V20.0411C7.28336 19.3292 7.57344 18.4232 7.34783 17.8893C7.19088 17.527 6.90295 17.2379 6.54211 17.0803C6.37291 17.0075 6.22788 16.9832 6.21982 17.1208L5.16433 22.9696C5.1424 24.2776 5.20699 25.5856 5.35769 26.885C5.41971 27.5278 5.67867 28.1354 6.09894 28.6243C7.99629 31.3612 10.0349 33.9966 12.2064 36.5198" stroke="#E9B566" stroke-width="0.9" stroke-linecap="round" stroke-linejoin="round"/>
<path d="M22.1078 36.536C21.6772 35.8769 21.4943 35.0854 21.5922 34.3032C21.7614 33.2678 22.5026 32.5721 24.0093 31.1968C24.0093 31.1968 25.6208 29.6517 26.2492 28.9802L26.5071 28.6809L27.1114 27.9852C27.6985 27.2426 28.3813 26.5816 29.1418 26.0194C29.4457 25.7798 29.8252 25.6577 30.2112 25.6755C30.5973 25.6934 30.9641 25.8498 31.2448 26.1165L28.8356 29.6355C28.5294 30.3393 28.2233 31.035 27.909 31.7307" stroke="#E9B566" stroke-width="0.9" stroke-linecap="round" stroke-linejoin="round"/>
<path d="M27.7715 36.536C29.943 34.0128 31.9815 31.3774 33.8789 28.6404C34.3028 28.1547 34.5599 27.5449 34.6121 26.9012C34.7672 25.602 34.8372 24.2941 34.8216 22.9858L33.758 17.1369C33.758 16.9994 33.6049 17.0237 33.4357 17.0965C33.078 17.2586 32.7915 17.5463 32.63 17.9055C32.4044 18.4151 32.6945 19.3454 32.775 20.0573V22.913L32.5253 23.7219L32.0015 24.903" stroke="#E9B566" stroke-width="0.9" stroke-linecap="round" stroke-linejoin="round"/>
<path d="M18.4336 33.8907C18.9713 34.1848 19.5782 34.3274 20.1901 34.3032C20.6988 34.2801 21.1952 34.1388 21.6404 33.8907" stroke="#E9B566" stroke-width="0.9" stroke-linecap="round" stroke-linejoin="round"/>
<path d="M9.35221 16.2795C9.35221 16.2795 7.28956 13.4481 7.14453 11.8949" stroke="#E9B566" stroke-width="0.9" stroke-linecap="round" stroke-linejoin="round"/>
<path d="M30.7852 16.2795C30.7852 16.2795 32.8478 13.4481 32.9928 11.8949" stroke="#E9B566" stroke-width="0.9" stroke-linecap="round" stroke-linejoin="round"/>
</g>
<defs>
<clipPath id="clip0_3034_1543">
<rect width="30.4" height="33.2" fill="white" transform="translate(4.80078 3.70001)"/>
</clipPath>
</defs>
</svg>
