<svg width="16" height="16" viewBox="0 0 16 16" fill="none" xmlns="http://www.w3.org/2000/svg">
<path d="M13.602 6.93281C13.602 10.9348 7.99922 14.6699 7.99922 14.6699C7.99922 14.6699 2.39648 10.9348 2.39648 6.93281C2.39648 5.44688 2.98677 4.0218 4.03749 2.97108C5.0882 1.92036 6.51328 1.33008 7.99922 1.33008C9.48516 1.33008 10.9102 1.92036 11.961 2.97108C13.0117 4.0218 13.602 5.44688 13.602 6.93281V6.93281Z" stroke-linecap="round" stroke-linejoin="round"/>
<path d="M8 8.26562C8.73674 8.26562 9.33398 7.66838 9.33398 6.93164C9.33398 6.1949 8.73674 5.59766 8 5.59766C7.26326 5.59766 6.66602 6.1949 6.66602 6.93164C6.66602 7.66838 7.26326 8.26562 8 8.26562Z" fill="#E9B566" stroke-linecap="round" stroke-linejoin="round"/>
</svg>
