<svg width="8" height="11" viewBox="0 0 8 11" fill="none" xmlns="http://www.w3.org/2000/svg">
<path opacity="0.25" d="M3.9875 10.0251C3.525 10.0251 3.2125 9.5876 3.2125 9.0251C3.2125 8.7126 3.325 8.2376 3.55 7.6001C3.775 6.9501 3.8875 6.3251 3.8875 5.6751C3.3375 6.0126 2.925 6.3626 2.6125 6.7126C1.9875 7.4126 1.375 8.1001 0.725 8.1001C0.325 8.1001 0 7.7876 0 7.4126C0 7.0001 0.3375 6.5876 1.075 6.3876C1.4375 6.2876 1.85 6.1751 2.3125 6.0876C2.7625 6.0001 3.2625 5.8001 3.7875 5.5001C3.25 5.2001 2.7375 5.0001 2.2625 4.9001C1.325 4.7001 0.575 4.5376 0.25 4.1626C0.0875 3.9751 0 3.7751 0 3.5626C0 3.1876 0.3 2.9001 0.7375 2.9001C1.4 2.9001 2.175 3.7751 2.725 4.4001C3 4.7126 3.3875 5.0251 3.8875 5.3251V5.1626C3.8875 4.6626 3.85 4.2501 3.75 3.9501C3.55 3.3501 3.2375 2.4126 3.2375 1.9751C3.2375 1.4001 3.5625 0.975098 4.0125 0.975098C4.45 0.975098 4.7875 1.3751 4.7875 1.9751C4.7875 2.2751 4.675 2.7626 4.45 3.4251C4.225 4.0876 4.1125 4.7251 4.1125 5.3251C4.825 4.8751 4.7375 4.9251 5.35 4.3376C5.9375 3.6876 6.35 3.2876 6.575 3.1376C6.8125 2.9751 7.05 2.9001 7.3 2.9001C7.7 2.9001 8 3.1751 8 3.5626C8 3.9876 7.6875 4.3501 6.9625 4.5876C6.6125 4.7001 6.2 4.8001 5.7375 4.9001C5.2625 5.0001 4.7625 5.2001 4.2125 5.5001C4.75 5.8001 5.2375 5.9876 5.7 6.0876C6.6125 6.2876 7.3875 6.4626 7.7375 6.8251C7.9125 7.0126 8 7.2001 8 7.4126C8 7.7876 7.7 8.1001 7.2625 8.1001C6.525 8.1001 5.575 6.9251 5.2125 6.5126C5.0375 6.3126 4.6625 6.0251 4.1125 5.6751V5.8376C4.1125 6.3751 4.225 6.9751 4.4375 7.6251C4.65 8.2751 4.7625 8.7376 4.7625 9.0251C4.7625 9.6126 4.425 10.0251 3.9875 10.0251Z" fill="white"/>
</svg>
