<svg width="25" height="24" viewBox="0 0 25 24" fill="none" xmlns="http://www.w3.org/2000/svg">
<path d="M19.2329 17.4334H21.3283C21.9386 17.4334 22.2235 17.1283 22.0607 16.5383C21.8776 15.9483 21.1859 15.0939 20.2908 14.0766C19.8025 13.507 19.0701 12.8763 18.8463 12.5712C18.5412 12.1643 18.6225 12.0015 18.8463 11.6353C18.826 11.6353 21.3894 8.01407 21.6538 6.79342C21.7962 6.34585 21.6538 6.02034 21.0232 6.02034H18.9277C18.3988 6.02034 18.1546 6.30516 18.0122 6.61033C18.0122 6.61033 16.934 9.21438 15.4285 10.9029C14.9402 11.3912 14.7165 11.554 14.452 11.554C14.3096 11.554 14.1265 11.3912 14.1265 10.9436V6.77308C14.1265 6.24413 13.9637 6 13.5161 6H10.2204C9.89489 6 9.69144 6.24413 9.69144 6.48826C9.69144 6.99687 10.4442 7.11893 10.5256 8.54302V11.6353C10.5256 12.3067 10.4035 12.4288 10.139 12.4288C9.42697 12.4288 7.69771 9.80436 6.66016 6.81377C6.45672 6.22379 6.25327 6 5.72433 6H3.60853C2.99821 6 2.89648 6.28482 2.89648 6.58998C2.89648 7.13927 3.60853 9.90608 6.21259 13.568C7.94184 16.0704 10.4035 17.4131 12.621 17.4131C13.9637 17.4131 14.1265 17.1079 14.1265 16.5993V14.7073C14.1265 14.097 14.2485 13.9953 14.6758 13.9953C14.9809 13.9953 15.5302 14.158 16.7712 15.3583C18.1953 16.7824 18.4394 17.4334 19.2329 17.4334Z" fill="#E9B566"/>
</svg>
