<svg width="25" height="24" viewBox="0 0 25 24" fill="none" xmlns="http://www.w3.org/2000/svg">
<path fill-rule="evenodd" clip-rule="evenodd" d="M5.8387 6.2007C4.49675 6.26353 3.41878 7.25651 3.33169 8.52354C3.24825 9.73746 3.16602 11.2311 3.16602 12.4031C3.16602 13.5751 3.24825 15.0688 3.33169 16.2827C3.41878 17.5497 4.49675 18.5427 5.8387 18.6055C7.78195 18.6965 10.5594 18.8062 12.6521 18.8062C14.7448 18.8062 17.5223 18.6965 19.4655 18.6055C20.8075 18.5427 21.8855 17.5497 21.9726 16.2827C22.056 15.0688 22.1382 13.5751 22.1382 12.4031C22.1382 11.2311 22.056 9.73746 21.9726 8.52354C21.8855 7.25651 20.8075 6.26353 19.4655 6.2007C17.5223 6.10973 14.7448 6 12.6521 6C10.5594 6 7.78195 6.10973 5.8387 6.2007ZM15.3856 12.1544L10.6426 14.8985V9.41016L15.3856 12.1544Z" fill="#E9B566"/>
</svg>
