<svg width="64" height="64" viewBox="0 0 64 64" fill="none" xmlns="http://www.w3.org/2000/svg">
<path opacity="0.5" d="M34.668 24.0565L41.3346 20.2075C41.7472 19.9694 42.2076 19.8503 42.668 19.8503M34.668 38.8189L41.3346 42.6679C41.7472 42.9061 42.2076 43.0252 42.668 43.0252M56.0013 24.0013L52.8131 25.8561M56.0013 38.668L52.875 36.875M52.8131 25.8561C52.5858 25.3657 52.2109 24.9473 51.727 24.6679L44.0013 20.2075C43.5888 19.9693 43.1284 19.8503 42.668 19.8503M52.8131 25.8561C52.9734 26.2019 53.0603 26.5834 53.0603 26.9773V35.8981C53.0603 36.238 52.9956 36.5686 52.875 36.875M52.875 36.875C52.6574 37.4275 52.2577 37.9011 51.727 38.2075L44.0013 42.6679C43.5888 42.9061 43.1284 43.0252 42.668 43.0252M42.668 14.668V19.8503M42.668 48.0013V43.0252" stroke="white" stroke-width="1.5" stroke-linecap="round"/>
<path opacity="0.5" d="M29.0586 24.0565L22.3919 20.2075C22.0615 20.0167 21.7003 19.9024 21.333 19.8644M29.0586 38.8189L22.3919 42.6679C22.0615 42.8587 21.7003 42.9731 21.333 43.011M7.99967 24.0013L11.0062 25.6745M7.99967 38.668L10.9354 37.0656M11.0062 25.6745C11.2369 25.2626 11.5766 24.9122 11.9996 24.6679L19.7252 20.2075C20.2199 19.922 20.7833 19.8076 21.333 19.8644M11.0062 25.6745C10.787 26.066 10.6663 26.5131 10.6663 26.9773V35.8981C10.6663 36.3097 10.7611 36.7078 10.9354 37.0656M10.9354 37.0656C11.1645 37.536 11.531 37.937 11.9996 38.2075L19.7252 42.6679C20.2199 42.9535 20.7833 43.0679 21.333 43.011M21.333 14.668V19.8644M21.333 48.0013V43.011" stroke="white" stroke-width="1.5" stroke-linecap="round"/>
<path opacity="0.5" d="M32 26.668V36.0013" stroke="white" stroke-width="1.5" stroke-linecap="round"/>
<path d="M24.0013 11.9987C24.0013 13.4715 22.8074 14.6654 21.3346 14.6654C19.8619 14.6654 18.668 13.4715 18.668 11.9987C18.668 10.5259 19.8619 9.33203 21.3346 9.33203C22.8074 9.33203 24.0013 10.5259 24.0013 11.9987Z" stroke="#E9B566" stroke-width="1.5"/>
<path d="M24.0013 50.6667C24.0013 52.1394 22.8074 53.3333 21.3346 53.3333C19.8619 53.3333 18.668 52.1394 18.668 50.6667C18.668 49.1939 19.8619 48 21.3346 48C22.8074 48 24.0013 49.1939 24.0013 50.6667Z" stroke="#E9B566" stroke-width="1.5"/>
<path d="M45.3333 11.9987C45.3333 13.4715 44.1394 14.6654 42.6667 14.6654C41.1939 14.6654 40 13.4715 40 11.9987C40 10.5259 41.1939 9.33203 42.6667 9.33203C44.1394 9.33203 45.3333 10.5259 45.3333 11.9987Z" stroke="#E9B566" stroke-width="1.5"/>
<path d="M45.3333 50.6667C45.3333 52.1394 44.1394 53.3333 42.6667 53.3333C41.1939 53.3333 40 52.1394 40 50.6667C40 49.1939 41.1939 48 42.6667 48C44.1394 48 45.3333 49.1939 45.3333 50.6667Z" stroke="#E9B566" stroke-width="1.5"/>
</svg>
