<svg width="78" height="40" viewBox="0 0 78 40" fill="none" xmlns="http://www.w3.org/2000/svg">
<path fill-rule="evenodd" clip-rule="evenodd" d="M14.3605 2.43879C14.5497 2.56933 14.5394 4.90529 13.0855 6.78926C11.6316 8.67322 10.0358 9.16224 9.09393 9.26355C8.90473 9.13301 8.94586 6.81653 10.3998 4.93256C11.8537 3.04665 14.1713 2.30631 14.3605 2.43879ZM0 19.1463C0 14.4023 3.73042 10.4123 8.42943 10.4123C13.1284 10.4123 16.8589 14.4023 16.8589 19.1463C16.8589 23.8903 13.1284 27.8784 8.42943 27.8784C3.73042 27.8784 0 23.8884 0 19.1463ZM2.59114 19.1463C2.59114 23.7988 4.97252 27.3232 8.42737 27.3232C11.8822 27.3232 14.2636 23.7988 14.2636 19.1463C14.2636 14.4939 11.8822 10.9695 8.42737 10.9695C4.97252 10.9695 2.59114 14.4939 2.59114 19.1463ZM26.5703 12.2828C26.5703 11.2989 26.3421 11.2755 24.3946 11.1547V10.9151H30.8992V11.1547C28.9497 11.2755 28.7214 11.2989 28.7214 12.2828V27.4636H32.9495C35.1005 27.4636 36.4434 26.168 37.0254 23.795H37.2783L37.0254 27.7032H24.3946V27.4636C26.3441 27.3428 26.5703 27.3194 26.5703 26.3356V12.2828ZM38.744 11.1547C40.6935 11.2755 40.9218 11.2989 40.9218 12.2828V26.3356C40.9218 27.3194 40.6935 27.3428 38.744 27.4636V27.7032H45.2486V27.4636C43.2991 27.3428 43.0708 27.3194 43.0708 26.3356V12.2828C43.0708 11.2989 43.2991 11.2755 45.2486 11.1547V10.9151H38.744V11.1547ZM48.4894 12.4754C48.1603 11.6591 47.9074 11.3006 46.4637 11.1564V10.9168H52.9436V11.1564C50.918 11.3727 50.4882 11.5636 50.8687 12.6196L55.9564 26.1931H56.0057L60.8158 12.5475C61.1898 11.4154 60.6574 11.3738 58.0166 11.1672L57.8792 11.1564V10.9168H63.1437V11.1564C61.7515 11.396 61.3978 11.5402 61.0687 12.5241L55.6767 27.8238H54.4613L48.4873 12.4754H48.4894ZM76.967 14.8253H77.2199L77.222 14.8234L77.0945 10.9152H64.363V11.1548C66.3125 11.2756 66.5407 11.299 66.5407 12.2829V26.3357C66.5407 27.3195 66.3125 27.3449 64.363 27.4637V27.7033H77.2467L77.4996 23.7951H77.2467C76.6647 26.1681 75.3218 27.4637 73.1708 27.4637H68.6898V19.2869H71.575C73.1954 19.2869 74.1065 20.0779 74.3347 21.9969H74.5877V16.3372H74.3347C74.1065 18.2562 73.1954 19.0472 71.575 19.0472H68.6898V11.1568H73.3723C75.5234 11.1568 76.4611 12.7388 76.967 14.8253ZM18.9646 14.2622C19.9702 15.7546 21.6874 16.4209 21.8375 16.3293C21.9876 16.2377 22.0719 14.4823 21.0663 12.99C20.0607 11.4976 18.3436 10.8313 18.1934 10.9229C18.0433 11.0144 17.959 12.7698 18.9646 14.2622Z" fill="#E9B566"/>
</svg>
