<svg width="1013" height="556" viewBox="0 0 1013 556" fill="none" xmlns="http://www.w3.org/2000/svg">
<g clip-path="url(#clip0_4039_43575)">
<g filter="url(#filter0_b_4039_43575)">
<mask id="path-1-outside-1_4039_43575" maskUnits="userSpaceOnUse" x="10" y="12.083" width="989" height="533" fill="black">
<rect fill="white" x="10" y="12.083" width="989" height="533"/>
<path d="M147.784 407.867H296.296C399.672 407.867 421.512 395.491 457.912 324.147L465.92 327.059L416.416 533.083H13.832L11.648 525.075C169.624 377.291 271.544 292.115 271.544 172.723C271.544 85.363 227.864 32.947 169.624 32.947C136.136 32.947 114.296 51.147 114.296 71.531C114.296 103.563 178.36 109.387 178.36 167.627C178.36 203.299 153.608 237.515 104.832 237.515C54.6 237.515 28.392 203.299 28.392 161.075C28.392 86.819 99.736 13.291 243.152 13.291C371.28 13.291 444.808 67.163 444.808 154.523C444.808 263.723 327.6 332.155 147.784 407.867ZM745.961 13.291C893.017 13.291 997.849 124.675 997.849 278.283C997.849 431.891 893.017 543.275 746.689 543.275C599.633 543.275 494.073 432.619 494.073 278.283C494.073 123.947 598.905 13.291 745.961 13.291ZM745.961 24.211C696.457 24.211 678.985 75.171 678.985 278.283C678.985 481.395 697.185 532.355 746.689 532.355C795.465 532.355 812.937 481.395 812.937 278.283C812.937 75.171 795.465 24.211 745.961 24.211Z"/>
</mask>
<path d="M147.784 407.867L147.396 406.945L147.784 408.867V407.867ZM457.912 324.147L458.254 323.207L457.423 322.905L457.021 323.693L457.912 324.147ZM465.92 327.059L466.892 327.293L467.101 326.424L466.262 326.119L465.92 327.059ZM416.416 533.083V534.083H417.204L417.388 533.317L416.416 533.083ZM13.832 533.083L12.8672 533.346L13.0682 534.083H13.832V533.083ZM11.648 525.075L10.9648 524.345L10.5246 524.757L10.6832 525.338L11.648 525.075ZM147.784 408.867H296.296V406.867H147.784V408.867ZM296.296 408.867C347.962 408.867 379.506 405.788 402.684 393.647C425.916 381.478 440.595 360.289 458.803 324.601L457.021 323.693C438.829 359.349 424.388 380.02 401.756 391.875C379.07 403.758 348.006 406.867 296.296 406.867V408.867ZM457.57 325.087L465.578 327.999L466.262 326.119L458.254 323.207L457.57 325.087ZM464.948 326.825L415.444 532.849L417.388 533.317L466.892 327.293L464.948 326.825ZM416.416 532.083H13.832V534.083H416.416V532.083ZM14.7968 532.82L12.6128 524.812L10.6832 525.338L12.8672 533.346L14.7968 532.82ZM12.3312 525.805C91.2845 451.946 156.328 393.644 201.608 338.889C246.911 284.106 272.544 232.744 272.544 172.723H270.544C270.544 232.094 245.217 283.016 200.066 337.615C154.892 392.242 89.9875 450.42 10.9648 524.345L12.3312 525.805ZM272.544 172.723C272.544 128.886 261.585 93.7121 243.221 69.4711C224.842 45.2111 199.074 31.947 169.624 31.947V33.947C198.414 33.947 223.606 46.8909 241.627 70.6788C259.663 94.4859 270.544 129.2 270.544 172.723H272.544ZM169.624 31.947C135.889 31.947 113.296 50.3325 113.296 71.531H115.296C115.296 51.9615 136.383 33.947 169.624 33.947V31.947ZM113.296 71.531C113.296 79.9197 117.507 86.5307 123.602 92.5793C129.659 98.5906 137.775 104.225 145.705 110.534C161.649 123.216 177.36 138.975 177.36 167.627H179.36C179.36 138.039 163.039 121.766 146.951 108.968C138.865 102.537 130.965 97.0694 125.01 91.1597C119.093 85.2873 115.296 79.1583 115.296 71.531H113.296ZM177.36 167.627C177.36 185.237 171.251 202.454 159.16 215.262C147.081 228.056 128.971 236.515 104.832 236.515V238.515C129.469 238.515 148.123 229.866 160.614 216.634C173.093 203.416 179.36 185.689 179.36 167.627H177.36ZM104.832 236.515C79.9559 236.515 61.1253 228.05 48.5081 214.449C35.8797 200.835 29.392 181.984 29.392 161.075H27.392C27.392 182.39 34.0083 201.759 47.0419 215.809C60.0867 229.872 79.4761 238.515 104.832 238.515V236.515ZM29.392 161.075C29.392 87.5949 100.034 14.291 243.152 14.291V12.291C99.4377 12.291 27.392 86.043 27.392 161.075H29.392ZM243.152 14.291C307.095 14.291 357.279 27.7361 391.45 51.9627C425.58 76.1607 443.808 111.163 443.808 154.523H445.808C445.808 110.523 427.272 74.9093 392.606 50.3312C357.981 25.7818 307.338 12.291 243.152 12.291V14.291ZM443.808 154.523C443.808 208.698 414.758 252.846 363.114 292.963C311.448 333.097 237.301 369.091 147.396 406.945L148.172 408.789C238.083 370.931 312.448 334.853 364.34 294.543C416.254 254.216 445.808 209.548 445.808 154.523H443.808ZM745.961 14.291C892.415 14.291 996.849 125.176 996.849 278.283H998.849C998.849 124.174 893.619 12.291 745.961 12.291V14.291ZM996.849 278.283C996.849 431.392 892.413 542.275 746.689 542.275V544.275C893.621 544.275 998.849 432.39 998.849 278.283H996.849ZM746.689 542.275C600.23 542.275 495.073 432.112 495.073 278.283H493.073C493.073 433.126 599.036 544.275 746.689 544.275V542.275ZM495.073 278.283C495.073 124.45 599.506 14.291 745.961 14.291V12.291C598.305 12.291 493.073 123.444 493.073 278.283H495.073ZM745.961 23.211C733.398 23.211 722.759 26.4518 713.933 34.6128C705.139 42.7437 698.247 55.6645 692.945 74.8132C682.348 113.092 677.985 176.741 677.985 278.283H679.985C679.985 176.713 684.358 113.326 694.873 75.3468C700.128 56.3665 706.885 43.8528 715.291 36.0813C723.663 28.3401 733.773 25.211 745.961 25.211V23.211ZM677.985 278.283C677.985 379.827 682.53 443.477 693.311 481.757C698.704 500.907 705.688 513.827 714.55 521.956C723.444 530.114 734.126 533.355 746.689 533.355V531.355C734.501 531.355 724.344 528.226 715.902 520.482C707.428 512.709 700.581 500.194 695.236 481.215C684.54 443.237 679.985 379.851 679.985 278.283H677.985ZM746.689 533.355C759.075 533.355 769.578 530.112 778.301 521.949C786.991 513.818 793.813 500.898 799.068 481.751C809.574 443.474 813.937 379.826 813.937 278.283H811.937C811.937 379.852 807.564 443.24 797.14 481.221C791.93 500.203 785.239 512.718 776.935 520.489C768.664 528.228 758.692 531.355 746.689 531.355V533.355ZM813.937 278.283C813.937 176.741 809.574 113.092 798.977 74.8132C793.676 55.6645 786.783 42.7437 777.99 34.6128C769.163 26.4518 758.525 23.211 745.961 23.211V25.211C758.15 25.211 768.259 28.3401 776.632 36.0813C785.037 43.8528 791.795 56.3665 797.049 75.3468C807.564 113.326 811.937 176.713 811.937 278.283H813.937Z" fill="#E9B566" fill-opacity="0.5" mask="url(#path-1-outside-1_4039_43575)"/>
</g>
</g>
<defs>
<filter id="filter0_b_4039_43575" x="-20.3516" y="-18.709" width="1050.2" height="593.984" filterUnits="userSpaceOnUse" color-interpolation-filters="sRGB">
<feFlood flood-opacity="0" result="BackgroundImageFix"/>
<feGaussianBlur in="BackgroundImageFix" stdDeviation="16"/>
<feComposite in2="SourceAlpha" operator="in" result="effect1_backgroundBlur_4039_43575"/>
<feBlend mode="normal" in="SourceGraphic" in2="effect1_backgroundBlur_4039_43575" result="shape"/>
</filter>
<clipPath id="clip0_4039_43575">
<rect width="1013" height="556" fill="white"/>
</clipPath>
</defs>
</svg>
