<svg width="64" height="65" viewBox="0 0 64 65" fill="none" xmlns="http://www.w3.org/2000/svg">
<path d="M35.0676 7.83267H15.6009C15.2451 7.81128 14.8889 7.8656 14.5556 7.99205C14.2224 8.1185 13.9198 8.3142 13.6678 8.56622C13.4158 8.81824 13.2201 9.12085 13.0936 9.45408C12.9672 9.7873 12.9128 10.1436 12.9342 10.4993V53.166C12.9128 53.5218 12.9672 53.878 13.0936 54.2113C13.2201 54.5445 13.4158 54.8471 13.6678 55.0991C13.9198 55.3511 14.2224 55.5468 14.5556 55.6733C14.8889 55.7997 15.2451 55.854 15.6009 55.8327H47.0676C47.4233 55.854 47.7796 55.7997 48.1128 55.6733C48.446 55.5468 48.7487 55.3511 49.0007 55.0991C49.2527 54.8471 49.4484 54.5445 49.5748 54.2113C49.7013 53.878 49.7556 53.5218 49.7342 53.166V22.4993M35.0676 7.83267V22.4993H49.7342M35.0676 7.83267L42.4009 15.166L49.7342 22.4993M23.3342 33.966H39.3342M31.8676 44.0993H39.3342M23.3342 23.1393V23.2993" stroke="#E9B566" stroke-linecap="round" stroke-linejoin="round"/>
</svg>
