<svg width="40" height="40" viewBox="0 0 40 40" fill="none" xmlns="http://www.w3.org/2000/svg">
<g clip-path="url(#clip0_3034_1657)">
<path d="M22.4558 29.2242C21.8472 29.502 21.1855 29.6458 20.516 29.6458C19.8465 29.6458 19.1848 29.502 18.5762 29.2242L18.9176 28.7761C19.0463 28.5933 19.2316 28.4576 19.4452 28.3898C19.5156 28.3675 19.5887 28.3545 19.6625 28.3511C20.0815 28.3511 20.1823 28.4825 20.5238 28.4902C20.8652 28.4979 20.966 28.328 21.3928 28.3666C21.4834 28.3735 21.5724 28.3943 21.6566 28.4284C21.8352 28.502 21.9906 28.6221 22.1066 28.7761L22.4558 29.2242Z" stroke="#E9B566" stroke-width="0.9" stroke-linecap="round" stroke-linejoin="round"/>
<path d="M19.0508 30.3986L19.5319 30.7772C19.6952 30.856 19.8711 30.9057 20.0517 30.924H20.8975C20.9697 30.9316 21.0425 30.9316 21.1147 30.924C21.2884 30.8998 21.4551 30.8392 21.6036 30.7462L22.0226 30.414" stroke="#E9B566" stroke-width="0.9" stroke-linecap="round" stroke-linejoin="round"/>
<path d="M21.6341 25.8865C21.6341 26.0101 21.5099 26.041 21.1375 26.296C20.9277 26.4213 20.6877 26.4874 20.443 26.4874C20.1984 26.4874 19.9584 26.4213 19.7486 26.296C19.3839 26.041 19.283 26.0101 19.2598 25.8865" stroke="#E9B566" stroke-width="0.9" stroke-linecap="round" stroke-linejoin="round"/>
<path d="M14.1387 22.0312C14.3022 21.9143 14.4963 21.8472 14.6973 21.838C14.916 21.8357 15.1291 21.9064 15.3026 22.0389C15.5784 22.2787 15.9086 22.4484 16.2647 22.5334C16.5197 22.5868 16.7816 22.5999 17.0406 22.572C17.3808 22.5223 17.7158 22.4421 18.0416 22.3325L18.6235 22.1702" stroke="#E9B566" stroke-width="0.9" stroke-linecap="round" stroke-linejoin="round"/>
<path d="M15.3574 22.9505C15.4279 22.8185 15.5298 22.7058 15.6543 22.6223C15.7788 22.5387 15.922 22.487 16.0713 22.4715" stroke="#E9B566" stroke-width="0.9" stroke-linecap="round" stroke-linejoin="round"/>
<path d="M26.6918 22.0311C26.523 21.916 26.3221 21.8566 26.1176 21.8611C25.8988 21.8576 25.6853 21.9285 25.5124 22.062C25.2329 22.3009 24.9005 22.4704 24.5425 22.5565C24.2875 22.6101 24.0256 22.6231 23.7665 22.5951C23.4265 22.5445 23.0916 22.4644 22.7656 22.3556L22.1914 22.1934" stroke="#E9B566" stroke-width="0.9" stroke-linecap="round" stroke-linejoin="round"/>
<path d="M24.7676 22.4715C24.9165 22.4882 25.0592 22.5405 25.1834 22.6239C25.3077 22.7073 25.4099 22.8194 25.4814 22.9505" stroke="#E9B566" stroke-width="0.9" stroke-linecap="round" stroke-linejoin="round"/>
<path d="M27.3062 27.2694C26.8511 28.6188 26.0485 29.8256 24.9784 30.7694C24.6138 31.1402 24.2025 31.4802 23.8301 31.8279C23.155 32.3996 22.48 32.9018 21.9135 33.3036C21.467 33.6196 20.9328 33.7894 20.385 33.7894C19.8371 33.7894 19.3029 33.6196 18.8564 33.3036C17.0097 32.0056 14.0767 29.6182 13.4249 27.1845C13.0157 25.6707 12.7814 24.1154 12.7266 22.5488" stroke="#E9B566" stroke-width="0.9" stroke-linecap="round" stroke-linejoin="round"/>
<path d="M18.5775 19.8756C18.1921 19.4582 17.6743 19.1854 17.111 19.1029C16.3391 18.9919 15.5551 18.9919 14.7832 19.1029" stroke="#E9B566" stroke-width="0.9" stroke-linecap="round" stroke-linejoin="round"/>
<path d="M21.7188 19.8601C22.0527 19.4704 22.5047 19.1993 23.0068 19.0875" stroke="#E9B566" stroke-width="0.9" stroke-linecap="round" stroke-linejoin="round"/>
<path d="M17.1169 7.58319C17.1169 7.58319 21.625 11.2454 18.1334 15.1625C15.8522 17.7276 11.5691 17.5808 10.5371 21.3435C10.0613 23.0865 10.2752 24.9448 11.1345 26.5355C11.6636 27.3051 12.1035 28.1319 12.4458 29.0001C12.718 29.893 12.6935 30.8495 12.376 31.7274" stroke="#E9B566" stroke-width="0.9" stroke-linecap="round" stroke-linejoin="round"/>
<path d="M29.2228 28.2584C29.9679 27.2529 30.3281 26.0155 30.2385 24.7691C30.1489 23.5226 29.6154 22.349 28.734 21.4594C27.4925 20.1923 25.6924 19.7442 24.3345 18.6393C23.5021 18.0319 22.8021 17.2627 22.2766 16.3783C21.7512 15.4939 21.4112 14.5126 21.2773 13.4937" stroke="#E9B566" stroke-width="0.9" stroke-linecap="round" stroke-linejoin="round"/>
<path d="M16.1023 8.42535C16.5448 9.67535 16.5448 11.0384 16.1023 12.2884C15.3729 13.8337 13.7745 14.4981 12.2227 15.1008" stroke="#E9B566" stroke-width="0.9" stroke-linecap="round" stroke-linejoin="round"/>
<path d="M17.918 6.60199C20.2314 6.90767 22.3966 7.90748 24.1254 9.4684C25.3901 10.6428 26.3368 12.2189 27.8421 13.1151" stroke="#E9B566" stroke-width="0.9" stroke-linecap="round" stroke-linejoin="round"/>
<path d="M7.7294 35.6524C7.63223 34.7321 7.88408 33.8089 8.43549 33.0641C8.66456 32.7849 8.82648 32.4572 8.90882 32.1061C9.07952 30.7463 7.29489 29.8346 6.48017 29.0156C5.53353 28.1039 4.63346 26.8832 4.75761 25.5002C4.95597 24.397 5.41915 23.358 6.10771 22.4715C6.41813 22.0863 6.64296 21.6399 6.76735 21.1618C6.89174 20.6836 6.91288 20.1847 6.82934 19.6978C6.7224 19.2842 6.59288 18.8767 6.44138 18.4771C5.66545 16.2211 6.49567 14.4363 7.87682 12.6516C9.49986 10.7082 11.2357 8.86106 13.0755 7.11965C13.6705 6.4441 14.3543 5.85156 15.1085 5.35808C15.9007 4.92996 16.7911 4.7143 17.6923 4.73227H17.863L19.0967 4.77862C20.1054 4.83271 21.1141 4.77862 22.1306 4.73227H22.3013C23.2001 4.71351 24.0882 4.92926 24.8774 5.35808C25.6355 5.84939 26.3221 6.44212 26.9181 7.11965C28.7533 8.86313 30.4865 10.7102 32.109 12.6516C33.4979 14.4363 34.2971 16.2211 33.5445 18.4771C33.3955 18.8768 33.2686 19.2843 33.1643 19.6978C33.0792 20.1847 33.0996 20.684 33.2241 21.1623C33.3485 21.6407 33.5742 22.0871 33.8859 22.4715C34.5698 23.3608 35.0324 24.3986 35.236 25.5002C35.3601 26.8832 34.4601 28.1039 33.5134 29.0156C32.691 29.7882 30.9063 30.7308 31.0848 32.1061C31.1632 32.457 31.3226 32.785 31.5503 33.0641C32.1052 33.8072 32.3575 34.7318 32.2564 35.6524" stroke="#E9B566" stroke-width="0.9" stroke-linecap="round" stroke-linejoin="round"/>
<path d="M16.3738 31.3257C16.3738 31.3257 17.3592 34.3157 15.916 35.4978" stroke="#E9B566" stroke-width="0.9" stroke-linecap="round" stroke-linejoin="round"/>
<path d="M24.5673 31.3257C24.5673 31.3257 23.5896 34.3157 25.0251 35.4978" stroke="#E9B566" stroke-width="0.9" stroke-linecap="round" stroke-linejoin="round"/>
</g>
<defs>
<clipPath id="clip0_3034_1657">
<rect width="31.2" height="31.6" fill="white" transform="translate(4.40039 4.40002)"/>
</clipPath>
</defs>
</svg>
