<svg width="40" height="40" viewBox="0 0 40 40" fill="none" xmlns="http://www.w3.org/2000/svg">
<g clip-path="url(#clip0_3034_1602)">
<path d="M9.35232 24.5442C8.81561 22.122 8.64213 19.6345 8.83746 17.1621C9.03674 15.811 9.12544 14.4461 9.10269 13.0807C9.10269 12.4237 9.05589 11.5811 9.06369 10.2902C9.06222 9.52555 9.17526 8.76489 9.39913 8.03309C9.60557 7.2368 10.0752 6.53196 10.7331 6.03103C11.6926 5.37398 12.3869 5.66 15.3278 4.94111L16.0533 4.74786" stroke="#E9B566" stroke-width="0.9" stroke-linecap="round" stroke-linejoin="round"/>
<path d="M19.9851 26.7396C17.4882 26.7636 14.9983 26.4753 12.5742 25.8815" stroke="#E9B566" stroke-width="0.9" stroke-linecap="round" stroke-linejoin="round"/>
<path d="M12.1055 27.9531C13.9238 28.7456 15.5996 29.8265 17.0669 31.1533L20 34.0675" stroke="#E9B566" stroke-width="0.9" stroke-linecap="round" stroke-linejoin="round"/>
<path d="M27.8867 27.9531C26.0684 28.7456 24.3926 29.8265 22.9253 31.1533L19.9844 34.0675V35.6599" stroke="#E9B566" stroke-width="0.9" stroke-linecap="round" stroke-linejoin="round"/>
<path d="M13.035 13.962C13.035 15.1988 13.035 17.139 12.9336 18.5999" stroke="#E9B566" stroke-width="0.9" stroke-linecap="round" stroke-linejoin="round"/>
<path d="M14.04 15.8713C14.3376 16.6371 14.5368 17.437 14.6329 18.2521C14.691 19.3681 14.5375 20.485 14.1804 21.5451L13.6656 22.921C13.3639 23.7455 13.0675 24.5649 12.7763 25.3791C12.7763 25.3791 12.7061 25.5569 12.589 25.8815C12.472 26.2062 12.3394 26.6545 12.2068 27.242C11.5185 30.0392 11.7174 32.9787 12.7763 35.6599" stroke="#E9B566" stroke-width="0.9" stroke-linecap="round" stroke-linejoin="round"/>
<path d="M25.8976 15.9099C25.6211 16.6572 25.4429 17.4366 25.3672 18.2289C25.2998 19.3447 25.4508 20.4629 25.8118 21.5219C25.882 21.7074 25.9834 21.9547 26.3267 22.8978C26.6283 23.7223 26.9247 24.5417 27.216 25.3559C27.216 25.3559 27.294 25.5337 27.4032 25.8584C27.5124 26.183 27.6607 26.6313 27.7933 27.2188C28.4745 30.0172 28.273 32.9554 27.216 35.6367" stroke="#E9B566" stroke-width="0.9" stroke-linecap="round" stroke-linejoin="round"/>
<path d="M30.6404 24.5442C31.1787 22.1222 31.3548 19.6349 31.1631 17.1621C30.9559 15.8118 30.8672 14.4462 30.8978 13.0807C30.8978 12.4237 30.9368 11.5811 30.8978 10.2902C30.9035 9.52526 30.7904 8.76397 30.5624 8.03309C30.356 7.2368 29.8863 6.53196 29.2285 6.03103C28.2689 5.37398 27.5824 5.66 24.6337 4.94111L23.9082 4.74786" stroke="#E9B566" stroke-width="0.9" stroke-linecap="round" stroke-linejoin="round"/>
<path d="M19.9844 26.7396C22.4787 26.7633 24.966 26.475 27.3875 25.8815" stroke="#E9B566" stroke-width="0.9" stroke-linecap="round" stroke-linejoin="round"/>
<path d="M26.959 13.962C26.959 15.1988 26.959 17.139 27.0604 18.5999" stroke="#E9B566" stroke-width="0.9" stroke-linecap="round" stroke-linejoin="round"/>
<path d="M19.9851 11.0478C18.6038 10.2162 16.994 9.83499 15.3825 9.95786C14.6948 10.0182 14.0195 10.1771 13.3777 10.4294C12.9161 11.5478 12.7915 12.7748 13.0188 13.962C13.1122 14.3566 13.2482 14.7402 13.4245 15.106C13.5848 15.4258 13.815 15.7062 14.0984 15.9268C14.3817 16.1475 14.7112 16.3028 15.0627 16.3814L15.2655 16.4278C15.8908 16.5617 16.5292 16.6265 17.1689 16.6211C17.8987 16.5947 18.6176 16.4376 19.2908 16.1573C19.5105 16.0542 19.7445 15.9838 19.9851 15.9486C20.2232 15.9836 20.4546 16.0539 20.6716 16.1573C21.3448 16.4376 22.0637 16.5947 22.7934 16.6211C23.4331 16.6265 24.0715 16.5617 24.6968 16.4278L24.9075 16.3814C25.258 16.3027 25.5863 16.1474 25.8684 15.9267C26.1505 15.706 26.3792 15.4256 26.5379 15.106C26.7175 14.7416 26.8537 14.3577 26.9435 13.962C27.1792 12.7752 27.0543 11.5458 26.5847 10.4294C25.9456 10.1769 25.2729 10.0181 24.5876 9.95786C22.9759 9.83235 21.3653 10.2138 19.9851 11.0478Z" stroke="#E9B566" stroke-width="0.9" stroke-linecap="round" stroke-linejoin="round"/>
</g>
<defs>
<clipPath id="clip0_3034_1602">
<rect width="23.2" height="31.6" fill="white" transform="translate(8.40039 4.40002)"/>
</clipPath>
</defs>
</svg>
