<svg width="40" height="41" viewBox="0 0 40 41" fill="none" xmlns="http://www.w3.org/2000/svg">
<g clip-path="url(#clip0_3034_1565)">
<path d="M14.8078 9.77367C14.5246 9.81627 14.2352 9.78332 13.9689 9.67815C13.7025 9.57298 13.4687 9.39932 13.291 9.17474" stroke="#E9B566" stroke-width="0.9" stroke-linecap="round" stroke-linejoin="round"/>
<path d="M17.3906 5.659C17.5827 5.5588 17.7962 5.50647 18.0129 5.50647C18.2296 5.50647 18.443 5.5588 18.6352 5.659C18.7857 5.75061 18.9145 5.87391 19.0125 6.02032C19.1106 6.16674 19.1756 6.33275 19.203 6.50683C19.239 6.83474 19.1824 7.16617 19.0396 7.46356C18.8124 7.89455 18.6673 8.36405 18.6118 8.8481C18.5494 9.46881 18.5494 10.0942 18.6118 10.7149C18.725 10.7143 18.8376 10.73 18.9463 10.7616C19.0704 10.7959 19.1866 10.8541 19.2885 10.9327" stroke="#E9B566" stroke-width="0.9" stroke-linecap="round" stroke-linejoin="round"/>
<path d="M20.0664 6.81792C20.2951 6.80724 20.5228 6.85545 20.7275 6.95793C20.8768 7.0537 21.0049 7.17902 21.1039 7.32617C21.2029 7.47333 21.2707 7.63919 21.3032 7.81355C21.3449 8.10146 21.3155 8.39522 21.2176 8.66916C20.9998 9.44699 20.6964 9.57923 20.5175 10.1315C20.3854 10.5548 20.3667 11.0054 20.4631 11.4382C20.5596 11.4619 20.6516 11.5013 20.7353 11.5549C20.809 11.6138 20.8721 11.6849 20.922 11.7649" stroke="#E9B566" stroke-width="0.9" stroke-linecap="round" stroke-linejoin="round"/>
<path d="M22.1113 8.63806C22.342 8.65884 22.5588 8.75761 22.7258 8.91808C22.8322 9.03127 22.9119 9.16681 22.9592 9.31478C23.0189 9.56384 23.0219 9.82313 22.9681 10.0735C22.9142 10.3239 22.8048 10.559 22.648 10.7615C22.3668 11.2625 22.2045 11.8213 22.1735 12.395C22.2178 12.406 22.2599 12.4244 22.298 12.4494C22.374 12.4994 22.4378 12.5659 22.4847 12.6439" stroke="#E9B566" stroke-width="0.9" stroke-linecap="round" stroke-linejoin="round"/>
<path d="M17.375 10.326C17.2571 10.2381 17.1258 10.1698 16.9861 10.1238C16.6205 10.0149 16.4416 10.1238 16.3172 10.046C16.1927 9.96819 16.3172 9.51704 16.5272 8.80143C16.6316 8.48388 16.697 8.15476 16.7216 7.82137C16.8228 6.6624 16.5661 5.2623 15.2749 4.92005C14.7993 4.76678 14.2825 4.80644 13.8359 5.03049C13.3892 5.25454 13.0484 5.64505 12.8869 6.11792C12.7251 6.91822 12.7761 7.74697 13.0347 8.52141C13.0932 8.7378 13.1768 8.94663 13.2836 9.14368V9.19813C13.4118 9.46114 13.4822 9.74848 13.4902 10.0409C13.4983 10.3334 13.4438 10.6241 13.3303 10.8938C11.7746 13.5462 12.5525 16.3386 13.5403 19.0221C13.7503 19.6055 13.9526 20.1967 14.1393 20.7878C14.2793 21.239 14.4193 21.6979 14.5359 22.149C14.6954 22.748 14.8201 23.3558 14.9093 23.9692L14.956 24.2725C15.0767 25.2254 15.0767 26.1898 14.956 27.1427" stroke="#E9B566" stroke-width="0.9" stroke-linecap="round" stroke-linejoin="round"/>
<path d="M14.6367 33.7931C14.7997 34.2161 15.0457 34.6022 15.3601 34.9288C15.8272 35.3721 16.3846 35.7094 16.994 35.9174C17.6035 36.1255 18.2507 36.1995 18.8915 36.1344C19.3754 36.1139 19.8498 35.9935 20.2849 35.7806C20.72 35.5678 21.1063 35.2671 21.4194 34.8976C22.1096 33.9746 22.4834 32.8533 22.485 31.7008C22.6873 29.3673 22.5706 28.3094 22.8351 25.9526" stroke="#E9B566" stroke-width="0.9" stroke-linecap="round" stroke-linejoin="round"/>
<path d="M23.7687 19.6289C24.0332 18.0732 24.0021 18.2288 24.3599 16.712C24.4929 16.1369 24.5027 15.5403 24.3888 14.9611C24.2748 14.382 24.0397 13.8336 23.6987 13.3518C23.5043 13.0251 23.6988 12.6361 23.9321 12.3872C24.1573 12.1228 24.291 11.7927 24.3132 11.4461C24.3366 11.2123 24.2759 10.9779 24.1421 10.7849C24.0414 10.6376 23.9012 10.5217 23.7376 10.4504" stroke="#E9B566" stroke-width="0.9" stroke-linecap="round" stroke-linejoin="round"/>
<path d="M29.5857 26.6448C29.0723 23.9147 29.7413 21.3323 29.7179 18.6021L30.7136 14.5573C30.7357 14.4541 30.7234 14.3464 30.6784 14.2509C30.6334 14.1553 30.5583 14.0772 30.4647 14.0284C30.4074 14.0005 30.3449 13.9848 30.2812 13.9823C30.2176 13.9798 30.154 13.9906 30.0948 14.014C30.0355 14.0375 29.9818 14.073 29.937 14.1183C29.8922 14.1636 29.8573 14.2178 29.8346 14.2773L28.6445 16.8908" stroke="#E9B566" stroke-width="0.9" stroke-linecap="round" stroke-linejoin="round"/>
<path d="M24.3586 16.712C24.5909 17.1184 24.7911 17.5423 24.9576 17.9798V20.1967C24.9368 20.4724 24.822 20.7326 24.6322 20.9337C24.4424 21.1347 24.1893 21.2645 23.9153 21.3012C23.7815 21.3244 23.6446 21.3244 23.5108 21.3012C23.4133 21.2843 23.3189 21.2528 23.2308 21.2078L21.9318 20.2822C21.3018 19.8311 20.5239 19.0766 19.6917 19.5044C19.5983 19.5044 18.9605 20.0255 19.0616 20.1111C19.767 20.6324 20.4422 21.1933 21.084 21.7912C21.8618 22.6546 22.2196 23.7747 23.0052 24.6147C23.12 24.7437 23.2448 24.8634 23.3786 24.9725C24.2653 25.6959 25.2998 26.2093 25.7121 27.306" stroke="#E9B566" stroke-width="0.9" stroke-linecap="round" stroke-linejoin="round"/>
<path d="M24.3281 14.6663L26.1716 17.0309L27.1517 18.9599" stroke="#E9B566" stroke-width="0.9" stroke-linecap="round" stroke-linejoin="round"/>
<path d="M24.6152 15.0474L27.2287 16.1442L28.3177 17.9721" stroke="#E9B566" stroke-width="0.9" stroke-linecap="round" stroke-linejoin="round"/>
<path d="M14.5585 22.1724L13.7807 24.8792L13.9362 27.2983C13.9653 27.5723 14.0879 27.8278 14.2835 28.0219C14.479 28.216 14.7355 28.3368 15.0097 28.3639C15.245 28.3892 15.4827 28.346 15.6941 28.2395L16.962 27.2749C17.5765 26.8005 18.331 26.0226 19.1788 26.4193C19.2644 26.4582 19.9567 26.9171 19.8322 27.0105C19.0426 27.6126 18.3062 28.2814 17.6309 29.0095C17.3581 29.42 17.1188 29.8518 16.9153 30.3007C16.5668 31.0194 16.0927 31.67 15.5152 32.222C15.1818 32.438 14.8335 32.6304 14.4729 32.7976C13.9374 33.2079 13.5498 33.7812 13.3684 34.431L13.2051 35.3099" stroke="#E9B566" stroke-width="0.9" stroke-linecap="round" stroke-linejoin="round"/>
<path d="M14.1859 20.8967L12.3814 24.008L11.6735 26.1159C11.5335 26.3706 11.361 26.6059 11.1602 26.816" stroke="#E9B566" stroke-width="0.9" stroke-linecap="round" stroke-linejoin="round"/>
<path d="M9.54883 34.8976C9.66125 34.5257 9.74704 34.1462 9.80553 33.762C9.96967 31.7001 9.90706 29.6265 9.61883 27.5782C9.57391 27.234 9.62505 26.8841 9.76662 26.5671L10.7311 24.3502C10.9322 23.8881 11.2685 23.4976 11.6957 23.2302L13.5936 22.009" stroke="#E9B566" stroke-width="0.9" stroke-linecap="round" stroke-linejoin="round"/>
<path d="M18.0822 21.5656C17.8757 21.2555 17.7451 20.9011 17.7011 20.5311C17.6519 20.1523 17.6964 19.7673 17.8307 19.4097C17.9651 19.0522 18.1851 18.7331 18.4715 18.4804C18.758 18.2277 19.1021 18.0493 19.4736 17.9606C19.8451 17.872 20.2328 17.8759 20.6024 17.972" stroke="#E9B566" stroke-width="0.9" stroke-linecap="round" stroke-linejoin="round"/>
</g>
<defs>
<clipPath id="clip0_3034_1565">
<rect width="21.8804" height="32" fill="white" transform="translate(9.19922 4.5)"/>
</clipPath>
</defs>
</svg>
