<svg width="40" height="40" viewBox="0 0 40 40" fill="none" xmlns="http://www.w3.org/2000/svg">
<g clip-path="url(#clip0_3034_1678)">
<path d="M15.1003 16.666C14.2661 15.399 13.7603 13.9441 13.6287 12.4326C13.5919 11.8804 14.1364 9.81891 16.4027 7.83839C17.5318 6.86557 18.8351 6.11606 20.2436 5.62964" stroke="#E9B566" stroke-width="0.9" stroke-linecap="round" stroke-linejoin="round"/>
<path d="M15.0996 16.6661C15.2882 17.74 15.6975 18.763 16.3017 19.6704C16.9058 20.5778 17.6917 21.3498 18.6094 21.9376C18.8667 22.123 19.1754 22.2233 19.4924 22.2248C19.8094 22.2233 20.1181 22.123 20.3754 21.9376C21.297 21.3502 22.0876 20.5788 22.6978 19.6718C23.308 18.7647 23.7248 17.7415 23.9219 16.6661" stroke="#E9B566" stroke-width="0.9" stroke-linecap="round" stroke-linejoin="round"/>
<path d="M21.6337 9.51703C21.1933 10.3177 20.5738 11.0056 19.8236 11.527C19.0878 12.0645 18.2564 12.4399 17.55 12.9995C16.7693 13.5882 16.1285 14.3425 15.6737 15.2083C15.4358 15.6756 15.2554 16.17 15.1365 16.6808C14.8087 16.9204 14.5733 17.2657 14.4701 17.6586C14.3669 18.0515 14.4022 18.468 14.57 18.838C15.2175 20.097 15.4309 20.8038 14.8201 21.3191" stroke="#E9B566" stroke-width="0.9" stroke-linecap="round" stroke-linejoin="round"/>
<path d="M19.4277 11.8362C19.8393 11.9977 20.2337 12.1999 20.605 12.44C22.1017 13.4959 23.2596 14.9641 23.9382 16.6661" stroke="#E9B566" stroke-width="0.9" stroke-linecap="round" stroke-linejoin="round"/>
<path d="M16.6081 6.49843C16.4568 6.16771 16.4332 5.79267 16.5419 5.44559C16.7813 4.97625 17.1806 4.60805 17.6676 4.40747C18.1611 4.05159 18.6976 3.75967 19.2644 3.5387C19.4925 3.5387 20.0885 3.5387 21.4276 4.85659C22.4573 5.92596 23.3272 7.13857 24.0103 8.45686C24.5704 9.28459 24.9813 10.2041 25.2244 11.1736C25.3579 12.3766 25.1989 13.5941 24.7608 14.7224C24.5428 15.3952 24.262 16.0459 23.922 16.6661" stroke="#E9B566" stroke-width="0.9" stroke-linecap="round" stroke-linejoin="round"/>
<path d="M21.9941 20.5461V21.1572C21.9971 21.7327 22.192 22.2908 22.5479 22.7429C22.9037 23.195 23.4003 23.5153 23.9588 23.6531L27.7482 24.7206C28.3587 24.8923 28.9252 25.1935 29.4089 25.6039C29.8927 26.0143 30.2824 26.5241 30.5516 27.0987C30.7858 27.6255 30.8845 28.2026 30.8386 28.7774L30.3382 35.4478" stroke="#E9B566" stroke-width="0.9" stroke-linecap="round" stroke-linejoin="round"/>
<path d="M17.2194 20.7449V21.1572C17.2181 21.732 17.0248 22.29 16.6701 22.7422C16.3155 23.1945 15.8199 23.5151 15.2621 23.6531L11.4727 24.7206C10.8608 24.8913 10.2929 25.1922 9.80784 25.6026C9.32275 26.013 8.9319 26.5233 8.66196 27.0987C8.41708 27.6379 8.31813 28.232 8.375 28.8216L9.39776 35.4478" stroke="#E9B566" stroke-width="0.9" stroke-linecap="round" stroke-linejoin="round"/>
<path d="M12.9517 35.6687L12.7162 33.0624L12.1423 31.3469C11.7082 30.4045 11.9215 29.8155 12.5028 29.521C12.6573 29.4474 12.8045 29.3517 12.959 29.278C15.1421 28.2491 17.5472 27.781 19.9566 27.916C20.8583 27.9512 21.7561 28.0546 22.6422 28.2252" stroke="#E9B566" stroke-width="0.9" stroke-linecap="round" stroke-linejoin="round"/>
<path d="M23.8789 28.4166L24.6736 28.6596C25.3285 28.8657 25.8288 29.2412 26.3218 29.3296C27.2489 29.4916 27.6757 29.8891 26.469 31.9874L26.3071 35.6687" stroke="#E9B566" stroke-width="0.9" stroke-linecap="round" stroke-linejoin="round"/>
<path d="M22.6498 28.2252L22.1348 35.6687" stroke="#E9B566" stroke-width="0.9" stroke-linecap="round" stroke-linejoin="round"/>
</g>
<defs>
<clipPath id="clip0_3034_1678">
<rect width="23.2" height="32.8" fill="white" transform="translate(8 3.20001)"/>
</clipPath>
</defs>
</svg>
