<svg width="16" height="17" viewBox="0 0 16 17" fill="none" xmlns="http://www.w3.org/2000/svg">
<path d="M14.6298 11.804V13.804C14.6306 13.9897 14.5926 14.1734 14.5182 14.3436C14.4438 14.5137 14.3347 14.6664 14.1979 14.7919C14.0611 14.9174 13.8996 15.013 13.7237 15.0725C13.5478 15.132 13.3614 15.154 13.1765 15.1373C11.1251 14.9144 9.1545 14.2134 7.42317 13.0907C5.81239 12.0671 4.44673 10.7014 3.42317 9.09067C2.29649 7.35147 1.59533 5.37133 1.3765 3.31067C1.35985 3.12631 1.38175 2.94051 1.44084 2.76508C1.49992 2.58966 1.59489 2.42846 1.71968 2.29175C1.84448 2.15504 1.99637 2.04581 2.1657 1.97102C2.33502 1.89622 2.51807 1.85751 2.70317 1.85733H4.70317C5.02671 1.85415 5.34037 1.96872 5.58568 2.17969C5.83099 2.39066 5.99122 2.68363 6.0365 3.004C6.12092 3.64404 6.27747 4.27249 6.50317 4.87733C6.59287 5.11595 6.61228 5.37528 6.55911 5.62459C6.50594 5.8739 6.38241 6.10274 6.20317 6.284L5.3565 7.13067C6.30554 8.7997 7.68747 10.1816 9.3565 11.1307L10.2032 10.284C10.3844 10.1048 10.6133 9.98123 10.8626 9.92806C11.1119 9.87489 11.3712 9.89431 11.6098 9.984C12.2147 10.2097 12.8431 10.3663 13.4832 10.4507C13.807 10.4964 14.1028 10.6595 14.3142 10.909C14.5256 11.1585 14.638 11.4771 14.6298 11.804Z" stroke="#E9B566" stroke-linecap="round" stroke-linejoin="round"/>
</svg>
