<svg width="16" height="16" viewBox="0 0 16 16" fill="none" xmlns="http://www.w3.org/2000/svg">
<path d="M12.5825 3.36287C11.1037 4.01044 4.7581 6.76263 3.0031 7.51245C1.82498 7.99813 2.5156 8.44121 2.5156 8.44121C2.5156 8.44121 3.5231 8.79908 4.38435 9.07174C5.2456 9.34441 5.7006 9.03766 5.7006 9.03766L9.74685 6.1747C11.185 5.15222 10.8356 5.99577 10.4944 6.35364C9.74685 7.13754 8.51185 8.37304 7.47998 9.36145C7.01685 9.77896 7.25248 10.1454 7.44748 10.3243C8.19498 10.9889 10.2344 12.3437 10.3481 12.4289C10.9575 12.8805 12.1437 13.5281 12.3306 12.1562L13.0456 7.43577C13.2731 5.84239 13.5087 4.36831 13.5331 3.94227C13.6225 2.91979 12.5825 3.3373 12.5825 3.3373V3.36287Z" fill="#E9B566"/>
</svg>
