<svg width="25" height="24" viewBox="0 0 25 24" fill="none" xmlns="http://www.w3.org/2000/svg">
<path d="M3.70312 20.8039L4.9665 16.1105C3.94762 14.2822 3.62391 12.1488 4.05478 10.1016C4.48564 8.05446 5.64218 6.23095 7.31216 4.9657C8.98214 3.70044 11.0536 3.07832 13.1463 3.21349C15.239 3.34866 17.2127 4.23205 18.7051 5.70156C20.1976 7.17106 21.1087 9.12812 21.2713 11.2136C21.4338 13.2991 20.837 15.3731 19.5902 17.0551C18.3435 18.737 16.5304 19.9141 14.4838 20.3704C12.4372 20.8266 10.2942 20.5313 8.44825 19.5388L3.70312 20.8039ZM8.67705 17.7825L8.97051 17.9561C10.3076 18.7466 11.8693 19.0738 13.4123 18.8865C14.9552 18.6993 16.3927 18.0082 17.5008 16.921C18.6088 15.8338 19.3252 14.4115 19.5383 12.8757C19.7513 11.34 19.4491 9.77709 18.6786 8.43059C17.9082 7.08408 16.7128 6.02961 15.2788 5.43149C13.8448 4.83337 12.2528 4.7252 10.7507 5.12385C9.24864 5.52249 7.92097 6.40555 6.97459 7.63542C6.02822 8.86528 5.5163 10.3729 5.51861 11.9232C5.51735 13.2087 5.87377 14.4694 6.54821 15.5648L6.73224 15.8674L6.02595 18.487L8.67705 17.7825Z" fill="#E9B566"/>
<path fill-rule="evenodd" clip-rule="evenodd" d="M15.7996 13.1284C15.6275 12.99 15.4261 12.8925 15.2106 12.8435C14.9951 12.7945 14.7713 12.7952 14.5561 12.8456C14.2328 12.9795 14.0239 13.4856 13.815 13.7386C13.7709 13.7993 13.7062 13.8418 13.6329 13.8582C13.5597 13.8747 13.4829 13.8639 13.4171 13.8279C12.2334 13.3655 11.2413 12.5175 10.6018 11.4217C10.5473 11.3533 10.5215 11.2665 10.5298 11.1795C10.5382 11.0925 10.58 11.0121 10.6466 10.9553C10.8796 10.7253 11.0507 10.4403 11.144 10.1268C11.1647 9.781 11.0853 9.43656 10.9152 9.13454C10.7837 8.71113 10.5334 8.33411 10.194 8.04803C10.0189 7.96948 9.82475 7.94315 9.63499 7.9722C9.44524 8.00125 9.26797 8.08444 9.12456 8.21175C8.8756 8.426 8.67799 8.69322 8.54629 8.99374C8.41458 9.29426 8.35214 9.62041 8.36355 9.94819C8.36432 10.1323 8.38771 10.3155 8.43319 10.4939C8.54868 10.9225 8.7263 11.332 8.96042 11.7094C9.12933 11.9985 9.31363 12.2784 9.51253 12.5479C10.1589 13.433 10.9714 14.1845 11.905 14.7606C12.3735 15.0534 12.8741 15.2915 13.3972 15.4701C13.9405 15.7157 14.5403 15.81 15.1331 15.743C15.4708 15.692 15.7907 15.559 16.0648 15.3557C16.3389 15.1524 16.5587 14.885 16.7048 14.5771C16.7907 14.391 16.8167 14.1831 16.7794 13.9817C16.6899 13.5699 16.1378 13.3268 15.7996 13.1284Z" fill="#E9B566"/>
</svg>
